<?xml version="1.0" encoding="utf-8" standalone="no"?>
<!DOCTYPE svg PUBLIC "-//W3C//DTD SVG 1.1//EN"
  "http://www.w3.org/Graphics/SVG/1.1/DTD/svg11.dtd">
<svg xmlns:xlink="http://www.w3.org/1999/xlink" width="562.255156pt" height="320.237407pt" viewBox="0 0 562.255156 320.237407" xmlns="http://www.w3.org/2000/svg" version="1.1">
 <metadata>
  <rdf:RDF xmlns:dc="http://purl.org/dc/elements/1.1/" xmlns:cc="http://creativecommons.org/ns#" xmlns:rdf="http://www.w3.org/1999/02/22-rdf-syntax-ns#">
   <cc:Work>
    <dc:type rdf:resource="http://purl.org/dc/dcmitype/StillImage"/>
    <dc:date>2026-02-09T07:10:21.769506</dc:date>
    <dc:format>image/svg+xml</dc:format>
    <dc:creator>
     <cc:Agent>
      <dc:title>Matplotlib v3.10.8, https://matplotlib.org/</dc:title>
     </cc:Agent>
    </dc:creator>
   </cc:Work>
  </rdf:RDF>
 </metadata>
 <defs>
  <style type="text/css">*{stroke-linejoin: round; stroke-linecap: butt}</style>
 </defs>
 <g id="figure_1">
  <g id="patch_1">
   <path d="M 0 320.237407 
L 562.255156 320.237407 
L 562.255156 0 
L 0 0 
z
" style="fill: #1a2a3a"/>
  </g>
  <g id="axes_1">
   <g id="patch_2">
    <path d="M 71.405156 293.692469 
L 550.075156 293.692469 
L 550.075156 69.916469 
L 71.405156 69.916469 
z
" style="fill: #1a2a3a"/>
   </g>
   <g id="patch_3">
    <path d="M 71.405156 263.717647 
L 220.989531 263.717647 
L 220.989531 224.111275 
L 71.405156 224.111275 
z
" clip-path="url(#p8bc1b9c304)" style="fill: #ffffff; fill-opacity: 0.12549"/>
   </g>
   <g id="patch_4">
    <path d="M 71.405156 191.706062 
L 310.740156 191.706062 
L 310.740156 152.09969 
L 71.405156 152.09969 
z
" clip-path="url(#p8bc1b9c304)" style="fill: #d4af37; fill-opacity: 0.376471"/>
   </g>
   <g id="patch_5">
    <path d="M 71.405156 119.694477 
L 460.324531 119.694477 
L 460.324531 80.088106 
L 71.405156 80.088106 
z
" clip-path="url(#p8bc1b9c304)" style="fill: #d4af37"/>
   </g>
   <g id="matplotlib.axis_1">
    <g id="ytick_1">
     <g id="line2d_1">
      <defs>
       <path id="m1543bf191c" d="M 0 0 
L -3.5 0 
" style="stroke: #ffffff; stroke-width: 0.8"/>
      </defs>
      <g>
       <use xlink:href="#m1543bf191c" x="71.405156" y="243.914461" style="fill: #ffffff; stroke: #ffffff; stroke-width: 0.8"/>
      </g>
     </g>
     <g id="text_1">
      <!-- Unprepared -->
      <g style="fill: #ffffff" transform="translate(7.2 242.970867) scale(0.11 -0.11)">
       <defs>
        <path id="Lato-Regular-55" d="M 2355 493 
Q 2640 493 2864 589 
Q 3088 685 3243 857 
Q 3398 1030 3480 1270 
Q 3562 1510 3562 1798 
L 3562 4586 
L 4179 4586 
L 4179 1798 
Q 4179 1402 4052 1062 
Q 3926 723 3691 475 
Q 3456 227 3117 86 
Q 2778 -54 2355 -54 
Q 1933 -54 1593 86 
Q 1254 227 1017 475 
Q 781 723 654 1062 
Q 528 1402 528 1798 
L 528 4586 
L 1146 4586 
L 1146 1802 
Q 1146 1514 1227 1274 
Q 1309 1034 1464 861 
Q 1619 688 1844 590 
Q 2070 493 2355 493 
z
" transform="scale(0.015625)"/>
        <path id="Lato-Regular-6e" d="M 451 0 
L 451 3242 
L 794 3242 
Q 915 3242 944 3123 
L 989 2771 
Q 1200 3005 1462 3149 
Q 1725 3293 2067 3293 
Q 2333 3293 2536 3205 
Q 2739 3117 2875 2955 
Q 3011 2794 3081 2566 
Q 3152 2339 3152 2064 
L 3152 0 
L 2579 0 
L 2579 2064 
Q 2579 2432 2411 2635 
Q 2243 2838 1901 2838 
Q 1645 2838 1425 2716 
Q 1206 2595 1024 2387 
L 1024 0 
L 451 0 
z
" transform="scale(0.015625)"/>
        <path id="Lato-Regular-70" d="M 451 -1098 
L 451 3242 
L 794 3242 
Q 915 3242 944 3123 
L 992 2739 
Q 1200 2992 1469 3145 
Q 1738 3299 2083 3299 
Q 2365 3299 2592 3192 
Q 2819 3085 2979 2875 
Q 3139 2666 3225 2355 
Q 3312 2045 3312 1642 
Q 3312 1283 3216 974 
Q 3120 666 2939 440 
Q 2758 214 2497 84 
Q 2237 -45 1910 -45 
Q 1613 -45 1400 54 
Q 1187 154 1024 336 
L 1024 -1098 
L 451 -1098 
z
M 1898 2838 
Q 1619 2838 1409 2710 
Q 1200 2582 1024 2349 
L 1024 781 
Q 1178 570 1365 483 
Q 1552 397 1782 397 
Q 2237 397 2480 720 
Q 2723 1043 2723 1642 
Q 2723 1958 2667 2185 
Q 2611 2413 2505 2558 
Q 2400 2704 2246 2771 
Q 2093 2838 1898 2838 
z
" transform="scale(0.015625)"/>
        <path id="Lato-Regular-72" d="M 451 0 
L 451 3242 
L 778 3242 
Q 870 3242 905 3206 
Q 941 3171 954 3085 
L 989 2592 
Q 1142 2925 1368 3112 
Q 1594 3299 1917 3299 
Q 2019 3299 2113 3276 
Q 2208 3254 2282 3206 
L 2240 2781 
Q 2221 2701 2144 2701 
Q 2099 2701 2012 2720 
Q 1926 2739 1818 2739 
Q 1664 2739 1542 2692 
Q 1421 2646 1326 2558 
Q 1232 2470 1158 2342 
Q 1085 2214 1024 2048 
L 1024 0 
L 451 0 
z
" transform="scale(0.015625)"/>
        <path id="Lato-Regular-65" d="M 1779 3293 
Q 2070 3293 2318 3195 
Q 2566 3098 2747 2914 
Q 2928 2730 3030 2459 
Q 3133 2189 3133 1843 
Q 3133 1709 3104 1664 
Q 3075 1619 2995 1619 
L 829 1619 
Q 835 1312 912 1085 
Q 989 858 1123 706 
Q 1258 554 1443 478 
Q 1629 403 1859 403 
Q 2074 403 2229 452 
Q 2384 502 2496 560 
Q 2608 618 2683 667 
Q 2758 717 2813 717 
Q 2883 717 2922 662 
L 3082 454 
Q 2976 326 2829 232 
Q 2682 138 2514 77 
Q 2346 16 2166 -14 
Q 1987 -45 1811 -45 
Q 1475 -45 1192 68 
Q 909 182 702 401 
Q 496 621 381 944 
Q 266 1267 266 1686 
Q 266 2026 370 2320 
Q 474 2614 669 2830 
Q 864 3046 1145 3169 
Q 1427 3293 1779 3293 
z
M 1792 2874 
Q 1379 2874 1142 2635 
Q 906 2397 848 1974 
L 2621 1974 
Q 2621 2173 2565 2337 
Q 2509 2502 2401 2622 
Q 2294 2742 2140 2808 
Q 1987 2874 1792 2874 
z
" transform="scale(0.015625)"/>
        <path id="Lato-Regular-61" d="M 2512 0 
Q 2429 0 2384 27 
Q 2339 54 2314 134 
L 2250 438 
Q 2122 323 1998 232 
Q 1875 141 1742 78 
Q 1610 16 1458 -17 
Q 1306 -51 1120 -51 
Q 931 -51 764 1 
Q 598 54 475 160 
Q 352 266 280 427 
Q 208 589 208 810 
Q 208 1002 313 1179 
Q 419 1357 656 1494 
Q 893 1632 1273 1720 
Q 1654 1808 2208 1821 
L 2208 2074 
Q 2208 2451 2045 2644 
Q 1882 2838 1568 2838 
Q 1357 2838 1214 2785 
Q 1072 2733 968 2667 
Q 864 2602 789 2549 
Q 714 2496 640 2496 
Q 582 2496 540 2526 
Q 499 2557 470 2602 
L 368 2784 
Q 637 3043 947 3171 
Q 1258 3299 1635 3299 
Q 1907 3299 2118 3209 
Q 2330 3120 2474 2960 
Q 2618 2800 2691 2573 
Q 2765 2346 2765 2074 
L 2765 0 
L 2512 0 
z
M 1290 349 
Q 1440 349 1565 379 
Q 1690 410 1800 466 
Q 1910 522 2011 603 
Q 2112 685 2208 787 
L 2208 1459 
Q 1814 1446 1537 1396 
Q 1261 1347 1086 1267 
Q 912 1187 833 1078 
Q 755 970 755 835 
Q 755 707 796 614 
Q 838 522 910 462 
Q 982 403 1080 376 
Q 1178 349 1290 349 
z
" transform="scale(0.015625)"/>
        <path id="Lato-Regular-64" d="M 2794 0 
Q 2672 0 2640 118 
L 2589 512 
Q 2381 259 2113 107 
Q 1846 -45 1501 -45 
Q 1222 -45 995 62 
Q 768 170 608 378 
Q 448 586 361 896 
Q 275 1206 275 1610 
Q 275 1968 371 2277 
Q 467 2586 646 2813 
Q 826 3040 1086 3169 
Q 1347 3299 1674 3299 
Q 1971 3299 2184 3198 
Q 2397 3098 2563 2915 
L 2563 4714 
L 3133 4714 
L 3133 0 
L 2794 0 
z
M 1686 416 
Q 1968 416 2177 544 
Q 2387 672 2563 906 
L 2563 2470 
Q 2403 2682 2217 2768 
Q 2032 2854 1802 2854 
Q 1350 2854 1107 2531 
Q 864 2208 864 1610 
Q 864 1293 918 1067 
Q 973 842 1078 696 
Q 1184 550 1337 483 
Q 1491 416 1686 416 
z
" transform="scale(0.015625)"/>
       </defs>
       <use xlink:href="#Lato-Regular-55"/>
       <use xlink:href="#Lato-Regular-6e" transform="translate(72.050018 0)"/>
       <use xlink:href="#Lato-Regular-70" transform="translate(127.850021 0)"/>
       <use xlink:href="#Lato-Regular-72" transform="translate(183.900024 0)"/>
       <use xlink:href="#Lato-Regular-65" transform="translate(218.300034 0)"/>
       <use xlink:href="#Lato-Regular-70" transform="translate(271.100037 0)"/>
       <use xlink:href="#Lato-Regular-61" transform="translate(327.15004 0)"/>
       <use xlink:href="#Lato-Regular-72" transform="translate(376.850052 0)"/>
       <use xlink:href="#Lato-Regular-65" transform="translate(411.250061 0)"/>
       <use xlink:href="#Lato-Regular-64" transform="translate(464.050064 0)"/>
      </g>
      <!-- Business -->
      <g style="fill: #ffffff" transform="translate(22.397188 254.58068) scale(0.11 -0.11)">
       <defs>
        <path id="Lato-Regular-42" d="M 586 0 
L 586 4586 
L 2048 4586 
Q 2470 4586 2776 4502 
Q 3082 4419 3278 4265 
Q 3475 4112 3568 3889 
Q 3661 3667 3661 3389 
Q 3661 3219 3608 3062 
Q 3555 2906 3449 2771 
Q 3344 2637 3182 2531 
Q 3021 2426 2803 2358 
Q 3306 2259 3562 1996 
Q 3818 1734 3818 1306 
Q 3818 1014 3710 774 
Q 3603 534 3396 361 
Q 3190 189 2889 94 
Q 2589 0 2205 0 
L 586 0 
z
M 1203 2090 
L 1203 493 
L 2195 493 
Q 2461 493 2653 553 
Q 2845 614 2968 724 
Q 3091 835 3148 987 
Q 3206 1139 3206 1322 
Q 3206 1677 2953 1883 
Q 2701 2090 2195 2090 
L 1203 2090 
z
M 1203 2531 
L 2022 2531 
Q 2285 2531 2478 2588 
Q 2672 2646 2798 2748 
Q 2925 2851 2985 2996 
Q 3046 3142 3046 3315 
Q 3046 3722 2803 3909 
Q 2560 4096 2048 4096 
L 1203 4096 
L 1203 2531 
z
" transform="scale(0.015625)"/>
        <path id="Lato-Regular-75" d="M 989 3242 
L 989 1174 
Q 989 806 1157 604 
Q 1325 403 1670 403 
Q 1920 403 2141 521 
Q 2362 640 2547 851 
L 2547 3242 
L 3117 3242 
L 3117 0 
L 2778 0 
Q 2656 0 2624 118 
L 2579 467 
Q 2368 234 2105 91 
Q 1843 -51 1504 -51 
Q 1238 -51 1035 37 
Q 832 125 694 285 
Q 557 445 488 672 
Q 419 899 419 1174 
L 419 3242 
L 989 3242 
z
" transform="scale(0.015625)"/>
        <path id="Lato-Regular-73" d="M 2339 2707 
Q 2301 2637 2221 2637 
Q 2173 2637 2112 2672 
Q 2051 2707 1963 2750 
Q 1875 2794 1753 2830 
Q 1632 2867 1466 2867 
Q 1322 2867 1206 2830 
Q 1091 2794 1009 2730 
Q 928 2666 885 2581 
Q 842 2496 842 2397 
Q 842 2272 914 2189 
Q 986 2106 1104 2045 
Q 1222 1984 1372 1937 
Q 1523 1891 1681 1838 
Q 1840 1786 1990 1722 
Q 2141 1658 2259 1562 
Q 2378 1466 2450 1326 
Q 2522 1187 2522 992 
Q 2522 768 2442 577 
Q 2362 387 2205 248 
Q 2048 109 1821 29 
Q 1594 -51 1296 -51 
Q 957 -51 681 59 
Q 406 170 214 342 
L 349 560 
Q 374 602 409 624 
Q 445 646 499 646 
Q 557 646 621 601 
Q 685 557 776 502 
Q 867 448 998 403 
Q 1130 358 1325 358 
Q 1491 358 1616 401 
Q 1741 445 1824 518 
Q 1907 592 1947 688 
Q 1987 784 1987 893 
Q 1987 1027 1915 1115 
Q 1843 1203 1724 1265 
Q 1606 1328 1454 1374 
Q 1302 1421 1144 1472 
Q 986 1523 834 1588 
Q 682 1654 563 1753 
Q 445 1853 373 1998 
Q 301 2144 301 2352 
Q 301 2538 377 2709 
Q 454 2880 601 3009 
Q 749 3139 963 3216 
Q 1178 3293 1453 3293 
Q 1773 3293 2027 3192 
Q 2282 3091 2467 2915 
L 2339 2707 
z
" transform="scale(0.015625)"/>
        <path id="Lato-Regular-69" d="M 1053 3242 
L 1053 0 
L 483 0 
L 483 3242 
L 1053 3242 
z
M 1174 4259 
Q 1174 4176 1140 4104 
Q 1107 4032 1051 3976 
Q 995 3920 920 3888 
Q 845 3856 762 3856 
Q 678 3856 606 3888 
Q 534 3920 480 3976 
Q 426 4032 394 4104 
Q 362 4176 362 4259 
Q 362 4342 394 4417 
Q 426 4493 480 4549 
Q 534 4605 606 4637 
Q 678 4669 762 4669 
Q 845 4669 920 4637 
Q 995 4605 1051 4549 
Q 1107 4493 1140 4417 
Q 1174 4342 1174 4259 
z
" transform="scale(0.015625)"/>
       </defs>
       <use xlink:href="#Lato-Regular-42"/>
       <use xlink:href="#Lato-Regular-75" transform="translate(63.650009 0)"/>
       <use xlink:href="#Lato-Regular-73" transform="translate(119.400009 0)"/>
       <use xlink:href="#Lato-Regular-69" transform="translate(162.700012 0)"/>
       <use xlink:href="#Lato-Regular-6e" transform="translate(186.700012 0)"/>
       <use xlink:href="#Lato-Regular-65" transform="translate(242.500015 0)"/>
       <use xlink:href="#Lato-Regular-73" transform="translate(295.300018 0)"/>
       <use xlink:href="#Lato-Regular-73" transform="translate(338.600021 0)"/>
      </g>
     </g>
    </g>
    <g id="ytick_2">
     <g id="line2d_2">
      <g>
       <use xlink:href="#m1543bf191c" x="71.405156" y="171.902876" style="fill: #ffffff; stroke: #ffffff; stroke-width: 0.8"/>
      </g>
     </g>
     <g id="text_2">
      <!-- Partially -->
      <g style="fill: #ffffff" transform="translate(25.595781 170.959282) scale(0.11 -0.11)">
       <defs>
        <path id="Lato-Regular-50" d="M 1203 1715 
L 1203 0 
L 586 0 
L 586 4586 
L 1939 4586 
Q 2374 4586 2696 4485 
Q 3018 4384 3229 4198 
Q 3440 4013 3544 3750 
Q 3648 3488 3648 3165 
Q 3648 2845 3536 2579 
Q 3424 2314 3208 2122 
Q 2992 1930 2673 1822 
Q 2355 1715 1939 1715 
L 1203 1715 
z
M 1203 2208 
L 1939 2208 
Q 2205 2208 2408 2278 
Q 2611 2349 2750 2475 
Q 2890 2602 2960 2778 
Q 3030 2954 3030 3165 
Q 3030 3603 2760 3849 
Q 2490 4096 1939 4096 
L 1203 4096 
L 1203 2208 
z
" transform="scale(0.015625)"/>
        <path id="Lato-Regular-74" d="M 1446 -51 
Q 1062 -51 856 163 
Q 650 378 650 781 
L 650 2765 
L 259 2765 
Q 208 2765 173 2795 
Q 138 2826 138 2890 
L 138 3117 
L 669 3184 
L 800 4186 
Q 810 4234 843 4264 
Q 877 4294 931 4294 
L 1219 4294 
L 1219 3178 
L 2157 3178 
L 2157 2765 
L 1219 2765 
L 1219 819 
Q 1219 614 1318 515 
Q 1418 416 1574 416 
Q 1664 416 1729 440 
Q 1795 464 1843 493 
Q 1891 522 1924 546 
Q 1958 570 1984 570 
Q 2029 570 2064 515 
L 2230 243 
Q 2083 106 1875 27 
Q 1667 -51 1446 -51 
z
" transform="scale(0.015625)"/>
        <path id="Lato-Regular-6c" d="M 1040 4714 
L 1040 0 
L 470 0 
L 470 4714 
L 1040 4714 
z
" transform="scale(0.015625)"/>
        <path id="Lato-Regular-79" d="M 1440 -957 
Q 1411 -1021 1368 -1059 
Q 1325 -1098 1235 -1098 
L 813 -1098 
L 1405 189 
L 67 3242 
L 560 3242 
Q 634 3242 677 3205 
Q 720 3168 736 3123 
L 1603 1082 
Q 1629 1008 1651 939 
Q 1674 870 1690 797 
Q 1731 941 1786 1085 
L 2627 3123 
Q 2646 3174 2692 3208 
Q 2739 3242 2797 3242 
L 3248 3242 
L 1440 -957 
z
" transform="scale(0.015625)"/>
       </defs>
       <use xlink:href="#Lato-Regular-50"/>
       <use xlink:href="#Lato-Regular-61" transform="translate(58.425003 0)"/>
       <use xlink:href="#Lato-Regular-72" transform="translate(108.125015 0)"/>
       <use xlink:href="#Lato-Regular-74" transform="translate(144.525024 0)"/>
       <use xlink:href="#Lato-Regular-69" transform="translate(180.375031 0)"/>
       <use xlink:href="#Lato-Regular-61" transform="translate(204.375031 0)"/>
       <use xlink:href="#Lato-Regular-6c" transform="translate(254.075043 0)"/>
       <use xlink:href="#Lato-Regular-6c" transform="translate(277.675049 0)"/>
       <use xlink:href="#Lato-Regular-79" transform="translate(301.275055 0)"/>
      </g>
      <!-- Prepared -->
      <g style="fill: #ffffff" transform="translate(20.932813 182.569095) scale(0.11 -0.11)">
       <use xlink:href="#Lato-Regular-50"/>
       <use xlink:href="#Lato-Regular-72" transform="translate(59.050003 0)"/>
       <use xlink:href="#Lato-Regular-65" transform="translate(93.450012 0)"/>
       <use xlink:href="#Lato-Regular-70" transform="translate(146.250015 0)"/>
       <use xlink:href="#Lato-Regular-61" transform="translate(202.300018 0)"/>
       <use xlink:href="#Lato-Regular-72" transform="translate(252.000031 0)"/>
       <use xlink:href="#Lato-Regular-65" transform="translate(286.40004 0)"/>
       <use xlink:href="#Lato-Regular-64" transform="translate(339.200043 0)"/>
      </g>
     </g>
    </g>
    <g id="ytick_3">
     <g id="line2d_3">
      <g>
       <use xlink:href="#m1543bf191c" x="71.405156" y="99.891291" style="fill: #ffffff; stroke: #ffffff; stroke-width: 0.8"/>
      </g>
     </g>
     <g id="text_3">
      <!-- Deal-Ready -->
      <g style="fill: #ffffff" transform="translate(8.525156 98.947698) scale(0.11 -0.11)">
       <defs>
        <path id="Lato-Regular-44" d="M 4560 2291 
Q 4560 1776 4397 1353 
Q 4234 931 3936 630 
Q 3638 330 3220 165 
Q 2803 0 2298 0 
L 586 0 
L 586 4586 
L 2298 4586 
Q 2803 4586 3220 4421 
Q 3638 4256 3936 3953 
Q 4234 3651 4397 3228 
Q 4560 2806 4560 2291 
z
M 3923 2291 
Q 3923 2714 3808 3046 
Q 3693 3379 3481 3609 
Q 3270 3840 2969 3961 
Q 2669 4083 2298 4083 
L 1206 4083 
L 1206 502 
L 2298 502 
Q 2669 502 2969 624 
Q 3270 746 3481 974 
Q 3693 1203 3808 1536 
Q 3923 1869 3923 2291 
z
" transform="scale(0.015625)"/>
        <path id="Lato-Regular-2d" d="M 400 2160 
L 1981 2160 
L 1981 1677 
L 400 1677 
L 400 2160 
z
" transform="scale(0.015625)"/>
        <path id="Lato-Regular-52" d="M 1203 1914 
L 1203 0 
L 586 0 
L 586 4586 
L 1882 4586 
Q 2317 4586 2633 4498 
Q 2950 4410 3156 4243 
Q 3363 4077 3462 3841 
Q 3562 3606 3562 3315 
Q 3562 3072 3485 2861 
Q 3408 2650 3262 2482 
Q 3117 2314 2907 2194 
Q 2698 2074 2432 2016 
Q 2554 1939 2637 1821 
L 3974 0 
L 3424 0 
Q 3254 0 3174 131 
L 1984 1770 
Q 1930 1846 1867 1880 
Q 1805 1914 1674 1914 
L 1203 1914 
z
M 1203 2365 
L 1856 2365 
Q 2125 2365 2331 2430 
Q 2538 2496 2677 2616 
Q 2816 2736 2886 2902 
Q 2957 3069 2957 3270 
Q 2957 3680 2688 3888 
Q 2419 4096 1882 4096 
L 1203 4096 
L 1203 2365 
z
" transform="scale(0.015625)"/>
       </defs>
       <use xlink:href="#Lato-Regular-44"/>
       <use xlink:href="#Lato-Regular-65" transform="translate(75.300018 0)"/>
       <use xlink:href="#Lato-Regular-61" transform="translate(128.100021 0)"/>
       <use xlink:href="#Lato-Regular-6c" transform="translate(177.800034 0)"/>
       <use xlink:href="#Lato-Regular-2d" transform="translate(201.40004 0)"/>
       <use xlink:href="#Lato-Regular-52" transform="translate(238.550049 0)"/>
       <use xlink:href="#Lato-Regular-65" transform="translate(297.950058 0)"/>
       <use xlink:href="#Lato-Regular-61" transform="translate(350.750061 0)"/>
       <use xlink:href="#Lato-Regular-64" transform="translate(400.450073 0)"/>
       <use xlink:href="#Lato-Regular-79" transform="translate(456.450073 0)"/>
      </g>
      <!-- Business -->
      <g style="fill: #ffffff" transform="translate(22.397188 110.55751) scale(0.11 -0.11)">
       <use xlink:href="#Lato-Regular-42"/>
       <use xlink:href="#Lato-Regular-75" transform="translate(63.650009 0)"/>
       <use xlink:href="#Lato-Regular-73" transform="translate(119.400009 0)"/>
       <use xlink:href="#Lato-Regular-69" transform="translate(162.700012 0)"/>
       <use xlink:href="#Lato-Regular-6e" transform="translate(186.700012 0)"/>
       <use xlink:href="#Lato-Regular-65" transform="translate(242.500015 0)"/>
       <use xlink:href="#Lato-Regular-73" transform="translate(295.300018 0)"/>
       <use xlink:href="#Lato-Regular-73" transform="translate(338.600021 0)"/>
      </g>
     </g>
    </g>
   </g>
   <g id="line2d_4">
    <path d="M 71.405156 283.520833 
L 550.075156 283.520833 
" clip-path="url(#p8bc1b9c304)" style="fill: none; stroke: #d4af37; stroke-opacity: 0.3; stroke-linecap: square"/>
   </g>
   <g id="text_4">
    <!-- 2.5x -->
    <g style="fill: #d4af37" transform="translate(229.964594 248.329461) scale(0.16 -0.16)">
     <defs>
      <path id="DejaVuSerif-Bold-32" d="M 844 3513 
L 469 3513 
L 469 4519 
Q 850 4634 1223 4692 
Q 1597 4750 1978 4750 
Q 2869 4750 3367 4386 
Q 3866 4022 3866 3372 
Q 3866 2909 3591 2542 
Q 3316 2175 2541 1672 
L 1241 819 
L 3450 819 
L 3450 1369 
L 3878 1369 
L 3878 0 
L 428 0 
L 428 763 
L 1119 1241 
Q 2003 1850 2297 2278 
Q 2591 2706 2591 3278 
Q 2591 3819 2367 4101 
Q 2144 4384 1716 4384 
Q 1347 4384 1125 4161 
Q 903 3938 844 3513 
z
" transform="scale(0.015625)"/>
      <path id="DejaVuSerif-Bold-2e" d="M 519 506 
Q 519 750 694 925 
Q 869 1100 1113 1100 
Q 1359 1100 1534 925 
Q 1709 750 1709 506 
Q 1709 259 1534 84 
Q 1359 -91 1113 -91 
Q 869 -91 694 84 
Q 519 259 519 506 
z
" transform="scale(0.015625)"/>
      <path id="DejaVuSerif-Bold-35" d="M 3609 4666 
L 3609 3847 
L 1113 3847 
L 1113 2822 
Q 1319 2981 1572 3062 
Q 1825 3144 2106 3144 
Q 2969 3144 3469 2708 
Q 3969 2272 3969 1522 
Q 3969 759 3469 334 
Q 2969 -91 2069 -91 
Q 1688 -91 1311 -28 
Q 934 34 525 166 
L 525 1184 
L 900 1184 
Q 919 725 1139 500 
Q 1359 275 1791 275 
Q 2250 275 2472 583 
Q 2694 891 2694 1522 
Q 2694 2144 2476 2451 
Q 2259 2759 1819 2759 
Q 1581 2759 1395 2661 
Q 1209 2563 1050 2356 
L 738 2356 
L 738 4666 
L 3609 4666 
z
" transform="scale(0.015625)"/>
      <path id="DejaVuSerif-Bold-78" d="M 2247 2119 
L 2834 2944 
L 2425 2944 
L 2425 3322 
L 3719 3322 
L 3719 2944 
L 3278 2944 
L 2431 1759 
L 3419 378 
L 3859 378 
L 3859 0 
L 1747 0 
L 1747 378 
L 2175 378 
L 1550 1253 
L 922 378 
L 1369 378 
L 1369 0 
L 0 0 
L 0 378 
L 475 378 
L 1356 1619 
L 403 2944 
L 31 2944 
L 31 3322 
L 2059 3322 
L 2059 2944 
L 1656 2944 
L 2247 2119 
z
" transform="scale(0.015625)"/>
     </defs>
     <use xlink:href="#DejaVuSerif-Bold-32"/>
     <use xlink:href="#DejaVuSerif-Bold-2e" transform="translate(69.580078 0)"/>
     <use xlink:href="#DejaVuSerif-Bold-35" transform="translate(104.394531 0)"/>
     <use xlink:href="#DejaVuSerif-Bold-78" transform="translate(173.974609 0)"/>
    </g>
   </g>
   <g id="text_5">
    <!-- 4.0x -->
    <g style="fill: #d4af37" transform="translate(319.715219 176.317876) scale(0.16 -0.16)">
     <defs>
      <path id="DejaVuSerif-Bold-34" d="M 4084 0 
L 1516 0 
L 1516 378 
L 2209 378 
L 2209 1228 
L 263 1228 
L 263 1588 
L 2216 4750 
L 3391 4750 
L 3391 1631 
L 4191 1631 
L 4191 1228 
L 3391 1228 
L 3391 378 
L 4084 378 
L 4084 0 
z
M 2209 1631 
L 2209 3897 
L 819 1631 
L 2209 1631 
z
" transform="scale(0.015625)"/>
      <path id="DejaVuSerif-Bold-30" d="M 2228 275 
Q 2603 275 2742 615 
Q 2881 956 2881 2328 
Q 2881 3691 2742 4037 
Q 2603 4384 2228 4384 
Q 1853 4384 1714 4043 
Q 1575 3703 1575 2328 
Q 1575 956 1714 615 
Q 1853 275 2228 275 
z
M 2228 -91 
Q 1294 -91 797 532 
Q 300 1156 300 2328 
Q 300 3500 797 4125 
Q 1294 4750 2228 4750 
Q 3159 4750 3656 4125 
Q 4153 3500 4153 2328 
Q 4153 1156 3656 532 
Q 3159 -91 2228 -91 
z
" transform="scale(0.015625)"/>
     </defs>
     <use xlink:href="#DejaVuSerif-Bold-34"/>
     <use xlink:href="#DejaVuSerif-Bold-2e" transform="translate(69.580078 0)"/>
     <use xlink:href="#DejaVuSerif-Bold-30" transform="translate(104.394531 0)"/>
     <use xlink:href="#DejaVuSerif-Bold-78" transform="translate(173.974609 0)"/>
    </g>
   </g>
   <g id="text_6">
    <!-- 6.5x -->
    <g style="fill: #d4af37" transform="translate(469.299594 104.306291) scale(0.16 -0.16)">
     <defs>
      <path id="DejaVuSerif-Bold-36" d="M 1575 2766 
Q 1778 2928 2029 3009 
Q 2281 3091 2578 3091 
Q 3294 3091 3701 2672 
Q 4109 2253 4109 1522 
Q 4109 750 3650 329 
Q 3191 -91 2344 -91 
Q 1388 -91 895 486 
Q 403 1063 403 2181 
Q 403 3453 950 4101 
Q 1497 4750 2572 4750 
Q 2853 4750 3175 4703 
Q 3497 4656 3866 4563 
L 3866 3738 
L 3488 3738 
Q 3409 4056 3192 4220 
Q 2975 4384 2631 4384 
Q 2075 4384 1826 4003 
Q 1578 3622 1575 2766 
z
M 2272 275 
Q 2594 275 2731 548 
Q 2869 822 2869 1497 
Q 2869 2172 2731 2445 
Q 2594 2719 2272 2719 
Q 1950 2719 1814 2445 
Q 1678 2172 1678 1497 
Q 1678 822 1814 548 
Q 1950 275 2272 275 
z
" transform="scale(0.015625)"/>
     </defs>
     <use xlink:href="#DejaVuSerif-Bold-36"/>
     <use xlink:href="#DejaVuSerif-Bold-2e" transform="translate(69.580078 0)"/>
     <use xlink:href="#DejaVuSerif-Bold-35" transform="translate(104.394531 0)"/>
     <use xlink:href="#DejaVuSerif-Bold-78" transform="translate(173.974609 0)"/>
    </g>
   </g>
   <g id="text_7">
    <!-- $10M -->
    <g style="fill: #ffffff; opacity: 0.376471" transform="translate(134.189375 246.59407) scale(0.09 -0.09)">
     <defs>
      <path id="Lato-Regular-24" d="M 1568 -38 
Q 1181 -3 862 152 
Q 544 307 314 547 
L 486 810 
Q 512 845 550 867 
Q 589 890 634 890 
Q 694 890 771 829 
Q 848 768 960 689 
Q 1072 611 1227 537 
Q 1382 464 1600 438 
L 1718 2138 
Q 1494 2205 1278 2289 
Q 1062 2374 891 2510 
Q 720 2646 616 2852 
Q 512 3059 512 3370 
Q 512 3603 603 3825 
Q 694 4048 870 4221 
Q 1046 4394 1302 4504 
Q 1558 4614 1888 4627 
L 1920 5088 
Q 1923 5149 1966 5197 
Q 2010 5245 2080 5245 
L 2291 5245 
L 2246 4611 
Q 2582 4570 2827 4438 
Q 3072 4307 3261 4122 
L 3123 3910 
Q 3059 3814 2976 3814 
Q 2931 3814 2865 3854 
Q 2800 3894 2709 3947 
Q 2618 4000 2494 4053 
Q 2371 4106 2214 4128 
L 2109 2579 
Q 2339 2509 2563 2425 
Q 2787 2342 2966 2211 
Q 3146 2080 3256 1883 
Q 3366 1686 3366 1392 
Q 3366 1104 3270 851 
Q 3174 598 2990 406 
Q 2806 214 2539 94 
Q 2272 -26 1930 -45 
L 1891 -608 
Q 1888 -669 1843 -715 
Q 1798 -762 1731 -762 
L 1520 -762 
L 1568 -38 
z
M 2826 1302 
Q 2826 1462 2766 1577 
Q 2707 1693 2604 1776 
Q 2502 1859 2364 1920 
Q 2227 1981 2070 2032 
L 1962 438 
Q 2173 458 2333 530 
Q 2493 602 2603 714 
Q 2714 826 2770 974 
Q 2826 1123 2826 1302 
z
M 1050 3427 
Q 1050 3274 1104 3160 
Q 1158 3046 1254 2960 
Q 1350 2874 1478 2810 
Q 1606 2746 1757 2694 
L 1853 4138 
Q 1645 4118 1493 4054 
Q 1341 3990 1243 3894 
Q 1146 3798 1098 3678 
Q 1050 3558 1050 3427 
z
" transform="scale(0.015625)"/>
      <path id="Lato-Regular-31" d="M 800 435 
L 1782 435 
L 1782 3562 
Q 1782 3696 1792 3846 
L 976 3146 
Q 934 3110 892 3102 
Q 851 3094 816 3100 
Q 781 3107 750 3126 
Q 720 3146 704 3168 
L 525 3414 
L 1891 4595 
L 2355 4595 
L 2355 435 
L 3258 435 
L 3258 0 
L 800 0 
L 800 435 
z
" transform="scale(0.015625)"/>
      <path id="Lato-Regular-30" d="M 3520 2291 
Q 3520 1690 3390 1250 
Q 3261 810 3037 522 
Q 2813 234 2507 93 
Q 2202 -48 1853 -48 
Q 1501 -48 1198 93 
Q 896 234 672 522 
Q 448 810 320 1250 
Q 192 1690 192 2291 
Q 192 2893 320 3334 
Q 448 3776 672 4065 
Q 896 4355 1198 4496 
Q 1501 4637 1853 4637 
Q 2202 4637 2507 4496 
Q 2813 4355 3037 4065 
Q 3261 3776 3390 3334 
Q 3520 2893 3520 2291 
z
M 2928 2291 
Q 2928 2816 2840 3173 
Q 2752 3530 2603 3747 
Q 2454 3965 2259 4059 
Q 2064 4154 1853 4154 
Q 1642 4154 1446 4059 
Q 1251 3965 1104 3747 
Q 957 3530 869 3173 
Q 781 2816 781 2291 
Q 781 1766 869 1411 
Q 957 1056 1104 838 
Q 1251 621 1446 526 
Q 1642 432 1853 432 
Q 2064 432 2259 526 
Q 2454 621 2603 838 
Q 2752 1056 2840 1411 
Q 2928 1766 2928 2291 
z
" transform="scale(0.015625)"/>
      <path id="Lato-Regular-4d" d="M 2842 1658 
Q 2880 1581 2915 1496 
Q 2950 1411 2986 1328 
Q 3018 1414 3053 1499 
Q 3088 1584 3130 1661 
L 4685 4480 
Q 4723 4554 4769 4570 
Q 4816 4586 4899 4586 
L 5357 4586 
L 5357 0 
L 4813 0 
L 4813 3370 
Q 4813 3437 4816 3513 
Q 4819 3590 4826 3670 
L 3254 803 
Q 3181 659 3030 659 
L 2941 659 
Q 2790 659 2717 803 
L 1110 3680 
Q 1120 3597 1125 3517 
Q 1130 3437 1130 3370 
L 1130 0 
L 586 0 
L 586 4586 
L 1043 4586 
Q 1126 4586 1171 4570 
Q 1216 4554 1258 4480 
L 2842 1658 
L 2842 1658 
z
" transform="scale(0.015625)"/>
     </defs>
     <use xlink:href="#Lato-Regular-24"/>
     <use xlink:href="#Lato-Regular-31" transform="translate(58 0)"/>
     <use xlink:href="#Lato-Regular-30" transform="translate(116 0)"/>
     <use xlink:href="#Lato-Regular-4d" transform="translate(174 0)"/>
    </g>
   </g>
   <g id="text_8">
    <!-- $16M -->
    <g style="fill: #ffffff; opacity: 0.501961" transform="translate(179.064687 174.582486) scale(0.09 -0.09)">
     <defs>
      <path id="Lato-Regular-36" d="M 1517 2867 
Q 1453 2790 1398 2716 
Q 1344 2643 1290 2573 
Q 1453 2685 1649 2747 
Q 1846 2810 2077 2810 
Q 2355 2810 2601 2718 
Q 2848 2627 3032 2452 
Q 3216 2278 3325 2024 
Q 3434 1770 3434 1443 
Q 3434 1126 3318 854 
Q 3203 582 2996 380 
Q 2790 179 2500 64 
Q 2211 -51 1862 -51 
Q 1517 -51 1235 59 
Q 954 170 757 373 
Q 560 576 453 865 
Q 346 1155 346 1514 
Q 346 1814 478 2155 
Q 611 2496 902 2883 
L 2067 4448 
Q 2112 4506 2190 4546 
Q 2269 4586 2371 4586 
L 2877 4586 
L 1517 2867 
z
M 893 1414 
Q 893 1194 957 1011 
Q 1021 829 1144 697 
Q 1267 566 1444 494 
Q 1622 422 1850 422 
Q 2080 422 2267 496 
Q 2454 570 2587 701 
Q 2720 832 2792 1011 
Q 2864 1190 2864 1402 
Q 2864 1626 2793 1806 
Q 2723 1987 2593 2113 
Q 2464 2240 2285 2307 
Q 2106 2374 1891 2374 
Q 1661 2374 1475 2296 
Q 1290 2218 1160 2085 
Q 1030 1952 961 1777 
Q 893 1603 893 1414 
z
" transform="scale(0.015625)"/>
     </defs>
     <use xlink:href="#Lato-Regular-24"/>
     <use xlink:href="#Lato-Regular-31" transform="translate(58 0)"/>
     <use xlink:href="#Lato-Regular-36" transform="translate(116 0)"/>
     <use xlink:href="#Lato-Regular-4d" transform="translate(174 0)"/>
    </g>
   </g>
   <g id="text_9">
    <!-- $26M -->
    <g style="fill: #1a2a3a" transform="translate(253.782344 102.591291) scale(0.09 -0.09)">
     <defs>
      <path id="Lato-Bold-24" d="M 1478 -29 
Q 1104 22 774 176 
Q 445 330 214 557 
L 458 918 
Q 490 966 542 996 
Q 595 1027 656 1027 
Q 726 1027 806 977 
Q 886 928 988 861 
Q 1091 794 1222 726 
Q 1354 659 1533 627 
L 1651 2058 
Q 1424 2125 1201 2209 
Q 979 2294 801 2436 
Q 624 2579 515 2796 
Q 406 3014 406 3344 
Q 406 3587 502 3819 
Q 598 4051 785 4233 
Q 973 4416 1245 4534 
Q 1517 4653 1869 4669 
L 1904 5072 
Q 1910 5149 1968 5209 
Q 2026 5270 2118 5270 
L 2410 5270 
L 2355 4643 
Q 2698 4589 2944 4449 
Q 3190 4310 3370 4138 
L 3178 3846 
Q 3136 3782 3091 3750 
Q 3046 3718 2982 3718 
Q 2934 3718 2867 3748 
Q 2800 3779 2717 3822 
Q 2634 3866 2530 3910 
Q 2426 3955 2301 3984 
L 2189 2659 
Q 2419 2589 2646 2504 
Q 2874 2419 3054 2284 
Q 3235 2150 3347 1950 
Q 3459 1750 3459 1450 
Q 3459 1152 3360 891 
Q 3261 630 3069 430 
Q 2877 230 2598 104 
Q 2320 -22 1962 -45 
L 1923 -515 
Q 1920 -589 1861 -651 
Q 1802 -714 1712 -714 
L 1421 -714 
L 1478 -29 
z
M 2707 1328 
Q 2707 1450 2664 1541 
Q 2621 1632 2542 1702 
Q 2464 1773 2358 1824 
Q 2253 1875 2128 1917 
L 2019 618 
Q 2358 662 2532 846 
Q 2707 1030 2707 1328 
z
M 1152 3421 
Q 1152 3299 1193 3206 
Q 1235 3114 1310 3042 
Q 1386 2970 1490 2914 
Q 1594 2858 1715 2813 
L 1814 3997 
Q 1635 3974 1510 3921 
Q 1386 3869 1306 3792 
Q 1226 3715 1189 3620 
Q 1152 3526 1152 3421 
z
" transform="scale(0.015625)"/>
      <path id="Lato-Bold-32" d="M 1901 4678 
Q 2221 4678 2486 4584 
Q 2752 4490 2941 4317 
Q 3130 4144 3235 3901 
Q 3341 3658 3341 3360 
Q 3341 3104 3265 2886 
Q 3190 2669 3064 2470 
Q 2938 2272 2768 2086 
Q 2598 1901 2413 1709 
L 1366 643 
Q 1520 688 1669 712 
Q 1818 736 1952 736 
L 3139 736 
Q 3267 736 3342 664 
Q 3418 592 3418 474 
L 3418 0 
L 243 0 
L 243 262 
Q 243 342 276 430 
Q 310 518 384 589 
L 1789 1997 
Q 1965 2176 2104 2339 
Q 2243 2502 2336 2662 
Q 2429 2822 2478 2987 
Q 2528 3152 2528 3334 
Q 2528 3501 2480 3627 
Q 2432 3754 2344 3840 
Q 2256 3926 2133 3969 
Q 2010 4013 1856 4013 
Q 1715 4013 1595 3973 
Q 1475 3933 1382 3861 
Q 1290 3789 1226 3693 
Q 1162 3597 1130 3482 
Q 1075 3334 988 3286 
Q 902 3238 739 3264 
L 323 3338 
Q 371 3670 508 3921 
Q 646 4173 852 4341 
Q 1059 4509 1326 4593 
Q 1594 4678 1901 4678 
z
" transform="scale(0.015625)"/>
      <path id="Lato-Bold-36" d="M 1670 2947 
Q 1626 2893 1586 2845 
Q 1546 2797 1507 2746 
Q 1642 2813 1797 2851 
Q 1952 2890 2134 2890 
Q 2397 2890 2645 2803 
Q 2893 2717 3081 2542 
Q 3270 2368 3385 2109 
Q 3501 1850 3501 1504 
Q 3501 1181 3382 897 
Q 3264 614 3049 403 
Q 2835 192 2532 70 
Q 2230 -51 1866 -51 
Q 1494 -51 1200 67 
Q 906 186 698 398 
Q 490 611 379 910 
Q 269 1210 269 1574 
Q 269 1901 401 2245 
Q 534 2589 813 2960 
L 1917 4442 
Q 1974 4518 2084 4572 
Q 2195 4627 2339 4627 
L 3043 4627 
L 1670 2947 
z
M 1027 1453 
Q 1027 1261 1080 1102 
Q 1133 944 1237 832 
Q 1341 720 1494 657 
Q 1648 595 1850 595 
Q 2038 595 2196 659 
Q 2355 723 2468 838 
Q 2582 954 2646 1109 
Q 2710 1264 2710 1446 
Q 2710 1645 2649 1803 
Q 2589 1962 2477 2072 
Q 2365 2182 2208 2240 
Q 2051 2298 1862 2298 
Q 1674 2298 1520 2234 
Q 1366 2170 1257 2056 
Q 1149 1942 1088 1787 
Q 1027 1632 1027 1453 
z
" transform="scale(0.015625)"/>
      <path id="Lato-Bold-4d" d="M 2838 1920 
Q 2893 1818 2939 1707 
Q 2986 1597 3030 1485 
Q 3075 1603 3123 1713 
Q 3171 1824 3226 1926 
L 4592 4490 
Q 4618 4538 4646 4566 
Q 4675 4595 4708 4608 
Q 4742 4621 4784 4624 
Q 4826 4627 4883 4627 
L 5533 4627 
L 5533 0 
L 4774 0 
L 4774 2989 
Q 4774 3072 4779 3171 
Q 4784 3270 4794 3373 
L 3395 749 
Q 3296 560 3091 560 
L 2970 560 
Q 2765 560 2666 749 
L 1251 3382 
Q 1261 3277 1267 3176 
Q 1274 3075 1274 2989 
L 1274 0 
L 515 0 
L 515 4627 
L 1165 4627 
Q 1222 4627 1264 4624 
Q 1306 4621 1339 4608 
Q 1373 4595 1400 4566 
Q 1427 4538 1453 4490 
L 2838 1920 
L 2838 1920 
z
" transform="scale(0.015625)"/>
     </defs>
     <use xlink:href="#Lato-Bold-24"/>
     <use xlink:href="#Lato-Bold-32" transform="translate(58 0)"/>
     <use xlink:href="#Lato-Bold-36" transform="translate(116 0)"/>
     <use xlink:href="#Lato-Bold-4d" transform="translate(174 0)"/>
    </g>
   </g>
   <g id="text_10">
    <!-- Valuation Multiple by Financial Readiness -->
    <g style="fill: #ffffff" transform="translate(71.405156 17.077969) scale(0.13 -0.13)">
     <defs>
      <path id="DejaVuSerif-Bold-56" d="M 5056 4666 
L 5056 4288 
L 4666 4288 
L 2906 0 
L 2163 0 
L 403 4288 
L -38 4288 
L -38 4666 
L 2150 4666 
L 2150 4288 
L 1697 4288 
L 2956 1197 
L 4225 4288 
L 3669 4288 
L 3669 4666 
L 5056 4666 
z
" transform="scale(0.015625)"/>
      <path id="DejaVuSerif-Bold-61" d="M 3525 2041 
L 3525 378 
L 4000 378 
L 4000 0 
L 2419 0 
L 2419 422 
Q 2200 159 1931 34 
Q 1663 -91 1319 -91 
Q 809 -91 536 182 
Q 263 456 263 966 
Q 263 1525 655 1803 
Q 1047 2081 1838 2081 
L 2419 2081 
L 2419 2278 
Q 2419 2681 2228 2873 
Q 2038 3066 1638 3066 
Q 1306 3066 1126 2930 
Q 947 2794 872 2484 
L 519 2484 
L 519 3200 
Q 816 3306 1134 3359 
Q 1453 3413 1806 3413 
Q 2697 3413 3111 3081 
Q 3525 2750 3525 2041 
z
M 2419 1044 
L 2419 1709 
L 2003 1709 
Q 1694 1709 1528 1540 
Q 1363 1372 1363 1056 
Q 1363 741 1483 584 
Q 1603 428 1850 428 
Q 2106 428 2262 597 
Q 2419 766 2419 1044 
z
" transform="scale(0.015625)"/>
      <path id="DejaVuSerif-Bold-6c" d="M 1797 378 
L 2272 378 
L 2272 0 
L 219 0 
L 219 378 
L 691 378 
L 691 4488 
L 219 4488 
L 219 4863 
L 1797 4863 
L 1797 378 
z
" transform="scale(0.015625)"/>
      <path id="DejaVuSerif-Bold-75" d="M 3963 3322 
L 3963 378 
L 4434 378 
L 4434 0 
L 2853 0 
L 2853 469 
Q 2656 172 2400 40 
Q 2144 -91 1753 -91 
Q 1194 -91 908 239 
Q 622 569 622 1209 
L 622 2944 
L 147 2944 
L 147 3322 
L 1728 3322 
L 1728 1381 
Q 1728 763 1831 595 
Q 1934 428 2209 428 
Q 2544 428 2698 675 
Q 2853 922 2853 1459 
L 2853 2944 
L 2450 2944 
L 2450 3322 
L 3963 3322 
z
" transform="scale(0.015625)"/>
      <path id="DejaVuSerif-Bold-74" d="M 634 2944 
L 153 2944 
L 153 3322 
L 634 3322 
L 634 4353 
L 1741 4353 
L 1741 3322 
L 2663 3322 
L 2663 2944 
L 1741 2944 
L 1741 909 
Q 1741 475 1809 369 
Q 1878 263 2059 263 
Q 2259 263 2356 397 
Q 2453 531 2459 813 
L 2925 813 
Q 2897 313 2651 111 
Q 2406 -91 1806 -91 
Q 1122 -91 878 123 
Q 634 338 634 909 
L 634 2944 
z
" transform="scale(0.015625)"/>
      <path id="DejaVuSerif-Bold-69" d="M 588 4263 
Q 588 4516 763 4689 
Q 938 4863 1191 4863 
Q 1438 4863 1611 4689 
Q 1784 4516 1784 4263 
Q 1784 4016 1611 3842 
Q 1438 3669 1191 3669 
Q 938 3669 763 3841 
Q 588 4013 588 4263 
z
M 1797 378 
L 2272 378 
L 2272 0 
L 219 0 
L 219 378 
L 691 378 
L 691 2944 
L 219 2944 
L 219 3322 
L 1797 3322 
L 1797 378 
z
" transform="scale(0.015625)"/>
      <path id="DejaVuSerif-Bold-6f" d="M 2138 263 
Q 2488 263 2630 563 
Q 2772 863 2772 1663 
Q 2772 2463 2631 2761 
Q 2491 3059 2138 3059 
Q 1784 3059 1640 2757 
Q 1497 2456 1497 1663 
Q 1497 869 1640 566 
Q 1784 263 2138 263 
z
M 2138 -91 
Q 1259 -91 761 376 
Q 263 844 263 1663 
Q 263 2484 761 2948 
Q 1259 3413 2138 3413 
Q 3019 3413 3516 2948 
Q 4013 2484 4013 1663 
Q 4013 844 3514 376 
Q 3016 -91 2138 -91 
z
" transform="scale(0.015625)"/>
      <path id="DejaVuSerif-Bold-6e" d="M 219 0 
L 219 378 
L 691 378 
L 691 2944 
L 219 2944 
L 219 3322 
L 1797 3322 
L 1797 2853 
Q 1997 3150 2253 3281 
Q 2509 3413 2900 3413 
Q 3459 3413 3745 3083 
Q 4031 2753 4031 2113 
L 4031 378 
L 4506 378 
L 4506 0 
L 2522 0 
L 2522 378 
L 2925 378 
L 2925 2144 
Q 2925 2566 2817 2730 
Q 2709 2894 2444 2894 
Q 2109 2894 1953 2648 
Q 1797 2403 1797 1869 
L 1797 378 
L 2203 378 
L 2203 0 
L 219 0 
z
" transform="scale(0.015625)"/>
      <path id="DejaVuSerif-Bold-20" transform="scale(0.015625)"/>
      <path id="DejaVuSerif-Bold-4d" d="M 269 0 
L 269 378 
L 863 378 
L 863 4288 
L 269 4288 
L 269 4666 
L 2194 4666 
L 3525 1672 
L 4863 4666 
L 6784 4666 
L 6784 4288 
L 6188 4288 
L 6188 378 
L 6784 378 
L 6784 0 
L 4384 0 
L 4384 378 
L 4978 378 
L 4978 3938 
L 3531 684 
L 2741 684 
L 1300 3938 
L 1300 378 
L 1894 378 
L 1894 0 
L 269 0 
z
" transform="scale(0.015625)"/>
      <path id="DejaVuSerif-Bold-70" d="M 1728 1825 
L 1728 1497 
Q 1728 916 1876 656 
Q 2025 397 2356 397 
Q 2697 397 2836 672 
Q 2975 947 2975 1663 
Q 2975 2378 2836 2651 
Q 2697 2925 2356 2925 
Q 2025 2925 1876 2665 
Q 1728 2406 1728 1825 
z
M 622 2944 
L 147 2944 
L 147 3322 
L 1728 3322 
L 1728 2900 
Q 1869 3159 2106 3286 
Q 2344 3413 2694 3413 
Q 3403 3413 3811 2945 
Q 4219 2478 4219 1663 
Q 4219 847 3811 378 
Q 3403 -91 2694 -91 
Q 2344 -91 2106 36 
Q 1869 163 1728 422 
L 1728 -953 
L 2241 -953 
L 2241 -1331 
L 147 -1331 
L 147 -953 
L 622 -953 
L 622 2944 
z
" transform="scale(0.015625)"/>
      <path id="DejaVuSerif-Bold-65" d="M 2566 1875 
Q 2566 2531 2444 2795 
Q 2322 3059 2028 3059 
Q 1744 3059 1620 2800 
Q 1497 2541 1497 1931 
L 1497 1875 
L 2566 1875 
z
M 3781 1503 
L 1497 1503 
L 1497 1478 
Q 1497 834 1690 548 
Q 1884 263 2316 263 
Q 2675 263 2897 453 
Q 3119 644 3181 1006 
L 3700 1006 
Q 3566 441 3166 175 
Q 2766 -91 2047 -91 
Q 1184 -91 723 364 
Q 263 819 263 1663 
Q 263 2488 734 2950 
Q 1206 3413 2047 3413 
Q 2872 3413 3312 2927 
Q 3753 2441 3781 1503 
z
" transform="scale(0.015625)"/>
      <path id="DejaVuSerif-Bold-62" d="M 622 378 
L 622 4488 
L 147 4488 
L 147 4863 
L 1728 4863 
L 1728 2900 
Q 1869 3159 2106 3286 
Q 2344 3413 2694 3413 
Q 3403 3413 3811 2945 
Q 4219 2478 4219 1663 
Q 4219 847 3811 378 
Q 3403 -91 2694 -91 
Q 2344 -91 2106 36 
Q 1869 163 1728 422 
L 1728 0 
L 147 0 
L 147 378 
L 622 378 
z
M 1728 1497 
Q 1728 916 1876 656 
Q 2025 397 2356 397 
Q 2697 397 2836 672 
Q 2975 947 2975 1663 
Q 2975 2378 2836 2651 
Q 2697 2925 2356 2925 
Q 2025 2925 1876 2665 
Q 1728 2406 1728 1825 
L 1728 1497 
z
" transform="scale(0.015625)"/>
      <path id="DejaVuSerif-Bold-79" d="M 1997 -750 
Q 1847 -1116 1634 -1269 
Q 1422 -1422 1063 -1422 
Q 909 -1422 721 -1387 
Q 534 -1353 313 -1288 
L 313 -594 
L 666 -597 
Q 675 -838 779 -953 
Q 884 -1069 1094 -1069 
Q 1297 -1069 1422 -958 
Q 1547 -847 1672 -538 
L 1722 -422 
L 275 2944 
L -84 2944 
L -84 3322 
L 1831 3322 
L 1831 2944 
L 1434 2944 
L 2278 978 
L 3066 2944 
L 2625 2944 
L 2625 3322 
L 3872 3322 
L 3872 2944 
L 3469 2944 
L 1997 -750 
z
" transform="scale(0.015625)"/>
      <path id="DejaVuSerif-Bold-46" d="M 300 0 
L 300 378 
L 897 378 
L 897 4288 
L 300 4288 
L 300 4666 
L 4459 4666 
L 4459 3566 
L 4031 3566 
L 4031 4238 
L 2106 4238 
L 2106 2741 
L 3291 2741 
L 3291 3334 
L 3719 3334 
L 3719 1722 
L 3291 1722 
L 3291 2316 
L 2106 2316 
L 2106 378 
L 2841 378 
L 2841 0 
L 300 0 
z
" transform="scale(0.015625)"/>
      <path id="DejaVuSerif-Bold-63" d="M 3609 1038 
Q 3491 469 3123 189 
Q 2756 -91 2125 -91 
Q 1238 -91 750 368 
Q 263 828 263 1663 
Q 263 2488 744 2950 
Q 1225 3413 2081 3413 
Q 2428 3413 2781 3347 
Q 3134 3281 3500 3150 
L 3500 2228 
L 3150 2228 
Q 3100 2650 2903 2854 
Q 2706 3059 2350 3059 
Q 1888 3059 1692 2746 
Q 1497 2434 1497 1663 
Q 1497 909 1687 586 
Q 1878 263 2309 263 
Q 2644 263 2845 463 
Q 3047 663 3091 1038 
L 3609 1038 
z
" transform="scale(0.015625)"/>
      <path id="DejaVuSerif-Bold-52" d="M 3397 2278 
Q 3675 2238 3865 2094 
Q 4056 1950 4197 1678 
L 4878 378 
L 5356 378 
L 5356 0 
L 3822 0 
L 3078 1409 
Q 2863 1847 2711 1967 
Q 2559 2088 2291 2088 
L 2100 2088 
L 2100 378 
L 2700 378 
L 2700 0 
L 300 0 
L 300 378 
L 897 378 
L 897 4288 
L 300 4288 
L 300 4666 
L 2963 4666 
Q 3775 4666 4217 4339 
Q 4659 4013 4659 3413 
Q 4659 2925 4345 2642 
Q 4031 2359 3397 2278 
z
M 2100 2463 
L 2509 2463 
Q 2947 2463 3183 2700 
Q 3419 2938 3419 3378 
Q 3419 3819 3183 4053 
Q 2947 4288 2509 4288 
L 2100 4288 
L 2100 2463 
z
" transform="scale(0.015625)"/>
      <path id="DejaVuSerif-Bold-64" d="M 2747 1497 
L 2747 1825 
Q 2747 2406 2597 2665 
Q 2447 2925 2119 2925 
Q 1775 2925 1636 2651 
Q 1497 2378 1497 1663 
Q 1497 947 1637 672 
Q 1778 397 2119 397 
Q 2447 397 2597 656 
Q 2747 916 2747 1497 
z
M 3853 378 
L 4325 378 
L 4325 0 
L 2747 0 
L 2747 422 
Q 2606 163 2367 36 
Q 2128 -91 1778 -91 
Q 1072 -91 667 378 
Q 263 847 263 1663 
Q 263 2481 667 2947 
Q 1072 3413 1778 3413 
Q 2128 3413 2367 3286 
Q 2606 3159 2747 2900 
L 2747 4488 
L 2272 4488 
L 2272 4863 
L 3853 4863 
L 3853 378 
z
" transform="scale(0.015625)"/>
      <path id="DejaVuSerif-Bold-73" d="M 300 97 
L 300 1025 
L 653 1025 
Q 697 653 931 458 
Q 1166 263 1569 263 
Q 1906 263 2086 380 
Q 2266 497 2266 716 
Q 2266 916 2152 1025 
Q 2038 1134 1709 1216 
L 1253 1331 
Q 738 1459 506 1698 
Q 275 1938 275 2344 
Q 275 2884 650 3148 
Q 1025 3413 1806 3413 
Q 2100 3413 2433 3364 
Q 2766 3316 3169 3213 
L 3169 2375 
L 2816 2375 
Q 2788 2716 2573 2887 
Q 2359 3059 1959 3059 
Q 1622 3059 1448 2951 
Q 1275 2844 1275 2638 
Q 1275 2469 1375 2372 
Q 1475 2275 1734 2209 
L 2188 2094 
Q 2841 1928 3091 1684 
Q 3341 1441 3341 1006 
Q 3341 444 2939 176 
Q 2538 -91 1691 -91 
Q 1381 -91 1034 -44 
Q 688 3 300 97 
z
" transform="scale(0.015625)"/>
     </defs>
     <use xlink:href="#DejaVuSerif-Bold-56"/>
     <use xlink:href="#DejaVuSerif-Bold-61" transform="translate(68.462891 0)"/>
     <use xlink:href="#DejaVuSerif-Bold-6c" transform="translate(133.257812 0)"/>
     <use xlink:href="#DejaVuSerif-Bold-75" transform="translate(171.246094 0)"/>
     <use xlink:href="#DejaVuSerif-Bold-61" transform="translate(243.951172 0)"/>
     <use xlink:href="#DejaVuSerif-Bold-74" transform="translate(308.746094 0)"/>
     <use xlink:href="#DejaVuSerif-Bold-69" transform="translate(354.9375 0)"/>
     <use xlink:href="#DejaVuSerif-Bold-6f" transform="translate(392.925781 0)"/>
     <use xlink:href="#DejaVuSerif-Bold-6e" transform="translate(459.625 0)"/>
     <use xlink:href="#DejaVuSerif-Bold-20" transform="translate(532.330078 0)"/>
     <use xlink:href="#DejaVuSerif-Bold-4d" transform="translate(567.144531 0)"/>
     <use xlink:href="#DejaVuSerif-Bold-75" transform="translate(677.837891 0)"/>
     <use xlink:href="#DejaVuSerif-Bold-6c" transform="translate(750.542969 0)"/>
     <use xlink:href="#DejaVuSerif-Bold-74" transform="translate(788.53125 0)"/>
     <use xlink:href="#DejaVuSerif-Bold-69" transform="translate(834.722656 0)"/>
     <use xlink:href="#DejaVuSerif-Bold-70" transform="translate(872.710938 0)"/>
     <use xlink:href="#DejaVuSerif-Bold-6c" transform="translate(942.632812 0)"/>
     <use xlink:href="#DejaVuSerif-Bold-65" transform="translate(980.621094 0)"/>
     <use xlink:href="#DejaVuSerif-Bold-20" transform="translate(1044.244141 0)"/>
     <use xlink:href="#DejaVuSerif-Bold-62" transform="translate(1079.058594 0)"/>
     <use xlink:href="#DejaVuSerif-Bold-79" transform="translate(1148.980469 0)"/>
     <use xlink:href="#DejaVuSerif-Bold-20" transform="translate(1207.085938 0)"/>
     <use xlink:href="#DejaVuSerif-Bold-46" transform="translate(1241.900391 0)"/>
     <use xlink:href="#DejaVuSerif-Bold-69" transform="translate(1312.896484 0)"/>
     <use xlink:href="#DejaVuSerif-Bold-6e" transform="translate(1350.884766 0)"/>
     <use xlink:href="#DejaVuSerif-Bold-61" transform="translate(1423.589844 0)"/>
     <use xlink:href="#DejaVuSerif-Bold-6e" transform="translate(1488.384766 0)"/>
     <use xlink:href="#DejaVuSerif-Bold-63" transform="translate(1561.089844 0)"/>
     <use xlink:href="#DejaVuSerif-Bold-69" transform="translate(1621.978516 0)"/>
     <use xlink:href="#DejaVuSerif-Bold-61" transform="translate(1659.966797 0)"/>
     <use xlink:href="#DejaVuSerif-Bold-6c" transform="translate(1724.761719 0)"/>
     <use xlink:href="#DejaVuSerif-Bold-20" transform="translate(1762.75 0)"/>
     <use xlink:href="#DejaVuSerif-Bold-52" transform="translate(1797.564453 0)"/>
     <use xlink:href="#DejaVuSerif-Bold-65" transform="translate(1880.669922 0)"/>
     <use xlink:href="#DejaVuSerif-Bold-61" transform="translate(1944.292969 0)"/>
     <use xlink:href="#DejaVuSerif-Bold-64" transform="translate(2009.087891 0)"/>
     <use xlink:href="#DejaVuSerif-Bold-69" transform="translate(2079.009766 0)"/>
     <use xlink:href="#DejaVuSerif-Bold-6e" transform="translate(2116.998047 0)"/>
     <use xlink:href="#DejaVuSerif-Bold-65" transform="translate(2189.703125 0)"/>
     <use xlink:href="#DejaVuSerif-Bold-73" transform="translate(2253.326172 0)"/>
     <use xlink:href="#DejaVuSerif-Bold-73" transform="translate(2309.625 0)"/>
    </g>
   </g>
   <g id="text_11">
    <!-- Indicative deal value for a $4M revenue business -->
    <g style="fill: #ffffff; opacity: 0.313725" transform="translate(71.405156 38.681444) scale(0.09 -0.09)">
     <defs>
      <path id="Lato-Regular-49" d="M 1206 0 
L 586 0 
L 586 4586 
L 1206 4586 
L 1206 0 
z
" transform="scale(0.015625)"/>
      <path id="Lato-Regular-63" d="M 2707 2666 
Q 2682 2630 2656 2611 
Q 2630 2592 2586 2592 
Q 2538 2592 2480 2632 
Q 2422 2672 2337 2720 
Q 2253 2768 2129 2808 
Q 2006 2848 1827 2848 
Q 1587 2848 1404 2763 
Q 1222 2678 1099 2518 
Q 976 2358 913 2131 
Q 851 1904 851 1622 
Q 851 1328 918 1099 
Q 986 870 1109 715 
Q 1232 560 1406 478 
Q 1581 397 1798 397 
Q 2006 397 2140 446 
Q 2275 496 2363 557 
Q 2451 618 2510 667 
Q 2570 717 2627 717 
Q 2698 717 2736 662 
L 2896 454 
Q 2790 323 2656 230 
Q 2522 138 2366 75 
Q 2211 13 2041 -16 
Q 1872 -45 1696 -45 
Q 1392 -45 1131 67 
Q 870 179 678 392 
Q 486 605 377 915 
Q 269 1226 269 1622 
Q 269 1984 369 2291 
Q 470 2598 664 2820 
Q 858 3043 1141 3168 
Q 1424 3293 1792 3293 
Q 2134 3293 2395 3182 
Q 2656 3072 2858 2870 
L 2707 2666 
z
" transform="scale(0.015625)"/>
      <path id="Lato-Regular-76" d="M 74 3242 
L 538 3242 
Q 608 3242 653 3206 
Q 698 3171 714 3123 
L 1536 1037 
Q 1574 918 1603 806 
Q 1632 694 1658 582 
Q 1683 694 1712 806 
Q 1741 918 1782 1037 
L 2614 3123 
Q 2634 3174 2678 3208 
Q 2723 3242 2784 3242 
L 3229 3242 
L 1907 0 
L 1395 0 
L 74 3242 
z
" transform="scale(0.015625)"/>
      <path id="Lato-Regular-20" transform="scale(0.015625)"/>
      <path id="Lato-Regular-66" d="M 662 0 
L 662 2755 
L 304 2797 
Q 237 2813 193 2846 
Q 150 2880 150 2944 
L 150 3178 
L 662 3178 
L 662 3491 
Q 662 3770 740 3986 
Q 819 4202 964 4350 
Q 1110 4499 1315 4576 
Q 1520 4653 1776 4653 
Q 1994 4653 2176 4589 
L 2163 4304 
Q 2157 4227 2078 4220 
Q 2000 4214 1869 4214 
Q 1722 4214 1602 4176 
Q 1482 4138 1395 4051 
Q 1309 3965 1262 3824 
Q 1216 3683 1216 3475 
L 1216 3178 
L 2150 3178 
L 2150 2765 
L 1235 2765 
L 1235 0 
L 662 0 
z
" transform="scale(0.015625)"/>
      <path id="Lato-Regular-6f" d="M 1818 3293 
Q 2173 3293 2457 3174 
Q 2742 3056 2944 2838 
Q 3146 2621 3253 2312 
Q 3360 2003 3360 1622 
Q 3360 1238 3253 931 
Q 3146 624 2944 406 
Q 2742 189 2457 72 
Q 2173 -45 1818 -45 
Q 1459 -45 1172 72 
Q 886 189 684 406 
Q 483 624 376 931 
Q 269 1238 269 1622 
Q 269 2003 376 2312 
Q 483 2621 684 2838 
Q 886 3056 1172 3174 
Q 1459 3293 1818 3293 
z
M 1818 400 
Q 2298 400 2534 721 
Q 2771 1043 2771 1619 
Q 2771 2198 2534 2521 
Q 2298 2845 1818 2845 
Q 1574 2845 1393 2761 
Q 1213 2678 1093 2521 
Q 973 2365 913 2136 
Q 854 1907 854 1619 
Q 854 1043 1092 721 
Q 1331 400 1818 400 
z
" transform="scale(0.015625)"/>
      <path id="Lato-Regular-34" d="M 2835 1654 
L 3530 1654 
L 3530 1328 
Q 3530 1277 3499 1241 
Q 3469 1206 3405 1206 
L 2835 1206 
L 2835 0 
L 2336 0 
L 2336 1206 
L 301 1206 
Q 237 1206 190 1243 
Q 144 1280 131 1334 
L 74 1626 
L 2304 4586 
L 2835 4586 
L 2835 1654 
z
M 2336 3546 
Q 2336 3629 2341 3726 
Q 2346 3824 2362 3926 
L 691 1654 
L 2336 1654 
L 2336 3546 
z
" transform="scale(0.015625)"/>
      <path id="Lato-Regular-62" d="M 451 0 
L 451 4714 
L 1024 4714 
L 1024 2771 
Q 1226 3011 1485 3152 
Q 1744 3293 2080 3293 
Q 2365 3293 2593 3184 
Q 2822 3075 2982 2868 
Q 3142 2662 3227 2368 
Q 3312 2074 3312 1706 
Q 3312 1312 3216 989 
Q 3120 666 2939 437 
Q 2758 208 2499 81 
Q 2240 -45 1917 -45 
Q 1597 -45 1377 75 
Q 1158 195 995 416 
L 966 122 
Q 941 0 819 0 
L 451 0 
z
M 1891 2838 
Q 1613 2838 1405 2710 
Q 1197 2582 1024 2349 
L 1024 781 
Q 1181 570 1368 483 
Q 1555 397 1779 397 
Q 2237 397 2480 720 
Q 2723 1043 2723 1683 
Q 2723 2278 2507 2558 
Q 2291 2838 1891 2838 
z
" transform="scale(0.015625)"/>
     </defs>
     <use xlink:href="#Lato-Regular-49"/>
     <use xlink:href="#Lato-Regular-6e" transform="translate(27.25 0)"/>
     <use xlink:href="#Lato-Regular-64" transform="translate(83.050003 0)"/>
     <use xlink:href="#Lato-Regular-69" transform="translate(139.050003 0)"/>
     <use xlink:href="#Lato-Regular-63" transform="translate(163.050003 0)"/>
     <use xlink:href="#Lato-Regular-61" transform="translate(210.800003 0)"/>
     <use xlink:href="#Lato-Regular-74" transform="translate(259.875015 0)"/>
     <use xlink:href="#Lato-Regular-69" transform="translate(295.725021 0)"/>
     <use xlink:href="#Lato-Regular-76" transform="translate(319.725021 0)"/>
     <use xlink:href="#Lato-Regular-65" transform="translate(369.950027 0)"/>
     <use xlink:href="#Lato-Regular-20" transform="translate(422.750031 0)"/>
     <use xlink:href="#Lato-Regular-64" transform="translate(448.350037 0)"/>
     <use xlink:href="#Lato-Regular-65" transform="translate(504.350037 0)"/>
     <use xlink:href="#Lato-Regular-61" transform="translate(557.15004 0)"/>
     <use xlink:href="#Lato-Regular-6c" transform="translate(606.850052 0)"/>
     <use xlink:href="#Lato-Regular-20" transform="translate(630.450058 0)"/>
     <use xlink:href="#Lato-Regular-76" transform="translate(653.675064 0)"/>
     <use xlink:href="#Lato-Regular-61" transform="translate(704.15007 0)"/>
     <use xlink:href="#Lato-Regular-6c" transform="translate(753.850082 0)"/>
     <use xlink:href="#Lato-Regular-75" transform="translate(777.450089 0)"/>
     <use xlink:href="#Lato-Regular-65" transform="translate(833.200089 0)"/>
     <use xlink:href="#Lato-Regular-20" transform="translate(886.000092 0)"/>
     <use xlink:href="#Lato-Regular-66" transform="translate(911.600098 0)"/>
     <use xlink:href="#Lato-Regular-6f" transform="translate(945.025101 0)"/>
     <use xlink:href="#Lato-Regular-72" transform="translate(1001.725113 0)"/>
     <use xlink:href="#Lato-Regular-20" transform="translate(1036.000122 0)"/>
     <use xlink:href="#Lato-Regular-61" transform="translate(1061.600128 0)"/>
     <use xlink:href="#Lato-Regular-20" transform="translate(1111.30014 0)"/>
     <use xlink:href="#Lato-Regular-24" transform="translate(1136.900146 0)"/>
     <use xlink:href="#Lato-Regular-34" transform="translate(1194.900146 0)"/>
     <use xlink:href="#Lato-Regular-4d" transform="translate(1252.900146 0)"/>
     <use xlink:href="#Lato-Regular-20" transform="translate(1345.750168 0)"/>
     <use xlink:href="#Lato-Regular-72" transform="translate(1371.350174 0)"/>
     <use xlink:href="#Lato-Regular-65" transform="translate(1405.750183 0)"/>
     <use xlink:href="#Lato-Regular-76" transform="translate(1457.425186 0)"/>
     <use xlink:href="#Lato-Regular-65" transform="translate(1507.650192 0)"/>
     <use xlink:href="#Lato-Regular-6e" transform="translate(1560.450195 0)"/>
     <use xlink:href="#Lato-Regular-75" transform="translate(1616.250198 0)"/>
     <use xlink:href="#Lato-Regular-65" transform="translate(1672.000198 0)"/>
     <use xlink:href="#Lato-Regular-20" transform="translate(1724.800201 0)"/>
     <use xlink:href="#Lato-Regular-62" transform="translate(1750.400208 0)"/>
     <use xlink:href="#Lato-Regular-75" transform="translate(1806.400208 0)"/>
     <use xlink:href="#Lato-Regular-73" transform="translate(1862.150208 0)"/>
     <use xlink:href="#Lato-Regular-69" transform="translate(1905.450211 0)"/>
     <use xlink:href="#Lato-Regular-6e" transform="translate(1929.450211 0)"/>
     <use xlink:href="#Lato-Regular-65" transform="translate(1985.250214 0)"/>
     <use xlink:href="#Lato-Regular-73" transform="translate(2038.050217 0)"/>
     <use xlink:href="#Lato-Regular-73" transform="translate(2081.35022 0)"/>
    </g>
   </g>
  </g>
  <g id="text_12">
   <!-- Newport Pembury &amp; Co    Illustrative only -->
   <g style="fill: #ffffff; opacity: 0.188235" transform="translate(425.598906 311.836469) scale(0.07 -0.07)">
    <defs>
     <path id="Lato-Regular-4e" d="M 906 4586 
Q 947 4586 976 4581 
Q 1005 4576 1027 4565 
Q 1050 4554 1072 4533 
Q 1094 4512 1120 4480 
L 3773 1027 
Q 3766 1110 3761 1188 
Q 3757 1267 3757 1338 
L 3757 4586 
L 4301 4586 
L 4301 0 
L 3990 0 
Q 3917 0 3867 25 
Q 3818 51 3770 112 
L 1117 3565 
Q 1123 3485 1126 3408 
Q 1130 3331 1130 3267 
L 1130 0 
L 586 0 
L 586 4586 
L 906 4586 
L 906 4586 
z
" transform="scale(0.015625)"/>
     <path id="Lato-Regular-77" d="M 106 3242 
L 554 3242 
Q 621 3242 667 3206 
Q 714 3171 730 3123 
L 1350 1037 
Q 1376 925 1398 817 
Q 1421 710 1437 605 
Q 1462 710 1494 817 
Q 1526 925 1562 1037 
L 2246 3136 
Q 2262 3184 2302 3216 
Q 2342 3248 2400 3248 
L 2650 3248 
Q 2714 3248 2755 3216 
Q 2797 3184 2813 3136 
L 3482 1037 
Q 3514 925 3542 816 
Q 3571 707 3597 602 
Q 3616 707 3640 814 
Q 3664 922 3693 1037 
L 4326 3123 
Q 4342 3174 4387 3208 
Q 4432 3242 4493 3242 
L 4922 3242 
L 3872 0 
L 3421 0 
Q 3338 0 3306 109 
L 2589 2307 
Q 2563 2381 2547 2456 
Q 2531 2531 2515 2605 
Q 2499 2531 2481 2454 
Q 2464 2378 2442 2304 
L 1712 109 
Q 1683 0 1584 0 
L 1155 0 
L 106 3242 
z
" transform="scale(0.015625)"/>
     <path id="Lato-Regular-6d" d="M 451 0 
L 451 3242 
L 794 3242 
Q 915 3242 944 3123 
L 986 2790 
Q 1165 3011 1389 3152 
Q 1613 3293 1907 3293 
Q 2234 3293 2437 3110 
Q 2640 2928 2730 2618 
Q 2800 2794 2910 2922 
Q 3021 3050 3158 3133 
Q 3296 3216 3451 3254 
Q 3606 3293 3766 3293 
Q 4022 3293 4222 3211 
Q 4422 3130 4561 2973 
Q 4701 2816 4774 2587 
Q 4848 2358 4848 2064 
L 4848 0 
L 4275 0 
L 4275 2064 
Q 4275 2445 4108 2641 
Q 3942 2838 3629 2838 
Q 3488 2838 3361 2788 
Q 3235 2739 3139 2643 
Q 3043 2547 2987 2401 
Q 2931 2256 2931 2064 
L 2931 0 
L 2358 0 
L 2358 2064 
Q 2358 2454 2201 2646 
Q 2045 2838 1744 2838 
Q 1533 2838 1353 2724 
Q 1174 2611 1024 2416 
L 1024 0 
L 451 0 
z
" transform="scale(0.015625)"/>
     <path id="Lato-Regular-26" d="M 2134 4637 
Q 2387 4637 2595 4555 
Q 2803 4474 2953 4339 
Q 3104 4205 3192 4027 
Q 3280 3850 3293 3658 
L 2938 3587 
Q 2832 3562 2781 3686 
Q 2758 3770 2708 3859 
Q 2659 3949 2580 4022 
Q 2502 4096 2392 4144 
Q 2282 4192 2134 4192 
Q 1974 4192 1844 4141 
Q 1715 4090 1624 3998 
Q 1533 3907 1485 3784 
Q 1437 3661 1437 3517 
Q 1437 3405 1462 3302 
Q 1488 3200 1544 3094 
Q 1600 2989 1686 2880 
Q 1773 2771 1894 2650 
L 3213 1309 
Q 3334 1526 3406 1760 
Q 3478 1994 3504 2230 
Q 3510 2291 3542 2326 
Q 3574 2362 3632 2362 
L 3981 2362 
Q 3978 1994 3864 1640 
Q 3750 1286 3542 976 
L 4502 0 
L 3949 0 
Q 3856 0 3798 22 
Q 3741 45 3674 115 
L 3210 579 
Q 2909 288 2517 118 
Q 2125 -51 1654 -51 
Q 1398 -51 1153 35 
Q 909 122 713 286 
Q 518 451 400 688 
Q 282 925 282 1222 
Q 282 1446 357 1646 
Q 432 1846 565 2016 
Q 698 2186 882 2320 
Q 1066 2454 1283 2550 
Q 1085 2797 993 3030 
Q 902 3264 902 3514 
Q 902 3747 987 3952 
Q 1072 4157 1232 4309 
Q 1392 4461 1621 4549 
Q 1850 4637 2134 4637 
z
M 1754 413 
Q 2112 413 2397 544 
Q 2682 675 2899 893 
L 1546 2259 
Q 1206 2077 1035 1822 
Q 864 1568 864 1267 
Q 864 1059 941 900 
Q 1018 742 1142 633 
Q 1267 525 1427 469 
Q 1587 413 1754 413 
z
" transform="scale(0.015625)"/>
     <path id="Lato-Regular-43" d="M 3805 947 
Q 3856 947 3894 906 
L 4141 640 
Q 3859 314 3457 131 
Q 3056 -51 2486 -51 
Q 1994 -51 1590 120 
Q 1187 291 902 600 
Q 618 909 461 1341 
Q 304 1773 304 2291 
Q 304 2810 467 3242 
Q 630 3674 926 3984 
Q 1222 4294 1635 4465 
Q 2048 4637 2547 4637 
Q 3037 4637 3411 4480 
Q 3786 4323 4070 4054 
L 3866 3770 
Q 3846 3738 3816 3717 
Q 3786 3696 3734 3696 
Q 3677 3696 3593 3758 
Q 3510 3821 3376 3897 
Q 3242 3974 3040 4036 
Q 2838 4099 2544 4099 
Q 2189 4099 1894 3976 
Q 1600 3853 1387 3619 
Q 1174 3386 1056 3050 
Q 938 2714 938 2291 
Q 938 1862 1061 1526 
Q 1184 1190 1397 958 
Q 1610 726 1899 604 
Q 2189 483 2525 483 
Q 2730 483 2894 507 
Q 3059 531 3198 582 
Q 3338 634 3458 712 
Q 3578 790 3696 899 
Q 3750 947 3805 947 
z
" transform="scale(0.015625)"/>
     <path id="Lato-Regular-b7" d="M 355 1898 
Q 355 1997 392 2086 
Q 429 2176 494 2240 
Q 560 2304 645 2342 
Q 730 2381 826 2381 
Q 925 2381 1014 2342 
Q 1104 2304 1168 2240 
Q 1232 2176 1270 2086 
Q 1309 1997 1309 1898 
Q 1309 1802 1270 1715 
Q 1232 1629 1168 1563 
Q 1104 1498 1014 1461 
Q 925 1424 826 1424 
Q 730 1424 645 1461 
Q 560 1498 494 1563 
Q 429 1629 392 1715 
Q 355 1802 355 1898 
z
" transform="scale(0.015625)"/>
    </defs>
    <use xlink:href="#Lato-Regular-4e"/>
    <use xlink:href="#Lato-Regular-65" transform="translate(74.850006 0)"/>
    <use xlink:href="#Lato-Regular-77" transform="translate(127.150009 0)"/>
    <use xlink:href="#Lato-Regular-70" transform="translate(205.700027 0)"/>
    <use xlink:href="#Lato-Regular-6f" transform="translate(261.750031 0)"/>
    <use xlink:href="#Lato-Regular-72" transform="translate(318.450043 0)"/>
    <use xlink:href="#Lato-Regular-74" transform="translate(354.850052 0)"/>
    <use xlink:href="#Lato-Regular-20" transform="translate(390.700058 0)"/>
    <use xlink:href="#Lato-Regular-50" transform="translate(416.300064 0)"/>
    <use xlink:href="#Lato-Regular-65" transform="translate(473.725067 0)"/>
    <use xlink:href="#Lato-Regular-6d" transform="translate(526.52507 0)"/>
    <use xlink:href="#Lato-Regular-62" transform="translate(608.775085 0)"/>
    <use xlink:href="#Lato-Regular-75" transform="translate(664.775085 0)"/>
    <use xlink:href="#Lato-Regular-72" transform="translate(720.525085 0)"/>
    <use xlink:href="#Lato-Regular-79" transform="translate(756.925095 0)"/>
    <use xlink:href="#Lato-Regular-20" transform="translate(805.975098 0)"/>
    <use xlink:href="#Lato-Regular-26" transform="translate(831.575104 0)"/>
    <use xlink:href="#Lato-Regular-20" transform="translate(902.775116 0)"/>
    <use xlink:href="#Lato-Regular-43" transform="translate(928.375122 0)"/>
    <use xlink:href="#Lato-Regular-6f" transform="translate(994.175125 0)"/>
    <use xlink:href="#Lato-Regular-20" transform="translate(1050.875137 0)"/>
    <use xlink:href="#Lato-Regular-20" transform="translate(1076.475143 0)"/>
    <use xlink:href="#Lato-Regular-b7" transform="translate(1102.07515 0)"/>
    <use xlink:href="#Lato-Regular-20" transform="translate(1128.07515 0)"/>
    <use xlink:href="#Lato-Regular-20" transform="translate(1153.675156 0)"/>
    <use xlink:href="#Lato-Regular-49" transform="translate(1179.275162 0)"/>
    <use xlink:href="#Lato-Regular-6c" transform="translate(1206.525162 0)"/>
    <use xlink:href="#Lato-Regular-6c" transform="translate(1230.125168 0)"/>
    <use xlink:href="#Lato-Regular-75" transform="translate(1253.725174 0)"/>
    <use xlink:href="#Lato-Regular-73" transform="translate(1309.475174 0)"/>
    <use xlink:href="#Lato-Regular-74" transform="translate(1352.775177 0)"/>
    <use xlink:href="#Lato-Regular-72" transform="translate(1388.625183 0)"/>
    <use xlink:href="#Lato-Regular-61" transform="translate(1424.275192 0)"/>
    <use xlink:href="#Lato-Regular-74" transform="translate(1473.350204 0)"/>
    <use xlink:href="#Lato-Regular-69" transform="translate(1509.200211 0)"/>
    <use xlink:href="#Lato-Regular-76" transform="translate(1533.200211 0)"/>
    <use xlink:href="#Lato-Regular-65" transform="translate(1583.425217 0)"/>
    <use xlink:href="#Lato-Regular-20" transform="translate(1636.22522 0)"/>
    <use xlink:href="#Lato-Regular-6f" transform="translate(1661.825226 0)"/>
    <use xlink:href="#Lato-Regular-6e" transform="translate(1718.525238 0)"/>
    <use xlink:href="#Lato-Regular-6c" transform="translate(1774.325241 0)"/>
    <use xlink:href="#Lato-Regular-79" transform="translate(1797.925247 0)"/>
   </g>
  </g>
 </g>
 <defs>
  <clipPath id="p8bc1b9c304">
   <rect x="71.405156" y="69.916469" width="478.67" height="223.776"/>
  </clipPath>
 </defs>
</svg>
