<?xml version="1.0" encoding="utf-8" standalone="no"?>
<!DOCTYPE svg PUBLIC "-//W3C//DTD SVG 1.1//EN"
  "http://www.w3.org/Graphics/SVG/1.1/DTD/svg11.dtd">
<svg xmlns:xlink="http://www.w3.org/1999/xlink" width="568.4pt" height="234.480937pt" viewBox="0 0 568.4 234.480937" xmlns="http://www.w3.org/2000/svg" version="1.1">
 <metadata>
  <rdf:RDF xmlns:dc="http://purl.org/dc/elements/1.1/" xmlns:cc="http://creativecommons.org/ns#" xmlns:rdf="http://www.w3.org/1999/02/22-rdf-syntax-ns#">
   <cc:Work>
    <dc:type rdf:resource="http://purl.org/dc/dcmitype/StillImage"/>
    <dc:date>2026-02-09T07:10:21.884894</dc:date>
    <dc:format>image/svg+xml</dc:format>
    <dc:creator>
     <cc:Agent>
      <dc:title>Matplotlib v3.10.8, https://matplotlib.org/</dc:title>
     </cc:Agent>
    </dc:creator>
   </cc:Work>
  </rdf:RDF>
 </metadata>
 <defs>
  <style type="text/css">*{stroke-linejoin: round; stroke-linecap: butt}</style>
 </defs>
 <g id="figure_1">
  <g id="patch_1">
   <path d="M 0 234.480937 
L 568.4 234.480937 
L 568.4 0 
L 0 0 
z
" style="fill: #f8f9fa"/>
  </g>
  <g id="axes_1">
   <g id="patch_2">
    <path d="M 404.407547 117.692308 
L 529.841509 117.692308 
Q 530.886792 117.692308 530.886792 114.009231 
L 530.886792 62.446154 
Q 530.886792 58.763077 529.841509 58.763077 
L 404.407547 58.763077 
Q 403.362264 58.763077 403.362264 62.446154 
L 403.362264 114.009231 
Q 403.362264 117.692308 404.407547 117.692308 
z
" clip-path="url(#pe30ca822a8)" style="fill: #d4af37; fill-opacity: 0.188235"/>
   </g>
   <g id="patch_3">
    <path d="M 278.973585 117.692308 
L 404.407547 117.692308 
Q 405.45283 117.692308 405.45283 114.009231 
L 405.45283 62.446154 
Q 405.45283 58.763077 404.407547 58.763077 
L 278.973585 58.763077 
Q 277.928302 58.763077 277.928302 62.446154 
L 277.928302 114.009231 
Q 277.928302 117.692308 278.973585 117.692308 
z
" clip-path="url(#pe30ca822a8)" style="fill: #d4af37; fill-opacity: 0.376471"/>
   </g>
   <g id="patch_4">
    <path d="M 153.539623 117.692308 
L 278.973585 117.692308 
Q 280.018868 117.692308 280.018868 114.009231 
L 280.018868 62.446154 
Q 280.018868 58.763077 278.973585 58.763077 
L 153.539623 58.763077 
Q 152.49434 58.763077 152.49434 62.446154 
L 152.49434 114.009231 
Q 152.49434 117.692308 153.539623 117.692308 
z
" clip-path="url(#pe30ca822a8)" style="fill: #d4af37; fill-opacity: 0.564706"/>
   </g>
   <g id="patch_5">
    <path d="M 28.10566 117.692308 
L 153.539623 117.692308 
Q 154.584906 117.692308 154.584906 114.009231 
L 154.584906 62.446154 
Q 154.584906 58.763077 153.539623 58.763077 
L 28.10566 58.763077 
Q 27.060377 58.763077 27.060377 62.446154 
L 27.060377 114.009231 
Q 27.060377 117.692308 28.10566 117.692308 
z
" clip-path="url(#pe30ca822a8)" style="fill: #d4af37"/>
   </g>
   <g id="line2d_1">
    <path d="M 7.2 10.883077 
L 561.2 10.883077 
" clip-path="url(#pe30ca822a8)" style="fill: none; stroke: #d4af37; stroke-opacity: 0.4; stroke-width: 1.5; stroke-linecap: square"/>
   </g>
   <g id="text_1">
    <!-- Foundation -->
    <g style="fill: #2c3e50" transform="translate(435.329216 85.094144) scale(0.1 -0.1)">
     <defs>
      <path id="DejaVuSerif-Bold-46" d="M 300 0 
L 300 378 
L 897 378 
L 897 4288 
L 300 4288 
L 300 4666 
L 4459 4666 
L 4459 3566 
L 4031 3566 
L 4031 4238 
L 2106 4238 
L 2106 2741 
L 3291 2741 
L 3291 3334 
L 3719 3334 
L 3719 1722 
L 3291 1722 
L 3291 2316 
L 2106 2316 
L 2106 378 
L 2841 378 
L 2841 0 
L 300 0 
z
" transform="scale(0.015625)"/>
      <path id="DejaVuSerif-Bold-6f" d="M 2138 263 
Q 2488 263 2630 563 
Q 2772 863 2772 1663 
Q 2772 2463 2631 2761 
Q 2491 3059 2138 3059 
Q 1784 3059 1640 2757 
Q 1497 2456 1497 1663 
Q 1497 869 1640 566 
Q 1784 263 2138 263 
z
M 2138 -91 
Q 1259 -91 761 376 
Q 263 844 263 1663 
Q 263 2484 761 2948 
Q 1259 3413 2138 3413 
Q 3019 3413 3516 2948 
Q 4013 2484 4013 1663 
Q 4013 844 3514 376 
Q 3016 -91 2138 -91 
z
" transform="scale(0.015625)"/>
      <path id="DejaVuSerif-Bold-75" d="M 3963 3322 
L 3963 378 
L 4434 378 
L 4434 0 
L 2853 0 
L 2853 469 
Q 2656 172 2400 40 
Q 2144 -91 1753 -91 
Q 1194 -91 908 239 
Q 622 569 622 1209 
L 622 2944 
L 147 2944 
L 147 3322 
L 1728 3322 
L 1728 1381 
Q 1728 763 1831 595 
Q 1934 428 2209 428 
Q 2544 428 2698 675 
Q 2853 922 2853 1459 
L 2853 2944 
L 2450 2944 
L 2450 3322 
L 3963 3322 
z
" transform="scale(0.015625)"/>
      <path id="DejaVuSerif-Bold-6e" d="M 219 0 
L 219 378 
L 691 378 
L 691 2944 
L 219 2944 
L 219 3322 
L 1797 3322 
L 1797 2853 
Q 1997 3150 2253 3281 
Q 2509 3413 2900 3413 
Q 3459 3413 3745 3083 
Q 4031 2753 4031 2113 
L 4031 378 
L 4506 378 
L 4506 0 
L 2522 0 
L 2522 378 
L 2925 378 
L 2925 2144 
Q 2925 2566 2817 2730 
Q 2709 2894 2444 2894 
Q 2109 2894 1953 2648 
Q 1797 2403 1797 1869 
L 1797 378 
L 2203 378 
L 2203 0 
L 219 0 
z
" transform="scale(0.015625)"/>
      <path id="DejaVuSerif-Bold-64" d="M 2747 1497 
L 2747 1825 
Q 2747 2406 2597 2665 
Q 2447 2925 2119 2925 
Q 1775 2925 1636 2651 
Q 1497 2378 1497 1663 
Q 1497 947 1637 672 
Q 1778 397 2119 397 
Q 2447 397 2597 656 
Q 2747 916 2747 1497 
z
M 3853 378 
L 4325 378 
L 4325 0 
L 2747 0 
L 2747 422 
Q 2606 163 2367 36 
Q 2128 -91 1778 -91 
Q 1072 -91 667 378 
Q 263 847 263 1663 
Q 263 2481 667 2947 
Q 1072 3413 1778 3413 
Q 2128 3413 2367 3286 
Q 2606 3159 2747 2900 
L 2747 4488 
L 2272 4488 
L 2272 4863 
L 3853 4863 
L 3853 378 
z
" transform="scale(0.015625)"/>
      <path id="DejaVuSerif-Bold-61" d="M 3525 2041 
L 3525 378 
L 4000 378 
L 4000 0 
L 2419 0 
L 2419 422 
Q 2200 159 1931 34 
Q 1663 -91 1319 -91 
Q 809 -91 536 182 
Q 263 456 263 966 
Q 263 1525 655 1803 
Q 1047 2081 1838 2081 
L 2419 2081 
L 2419 2278 
Q 2419 2681 2228 2873 
Q 2038 3066 1638 3066 
Q 1306 3066 1126 2930 
Q 947 2794 872 2484 
L 519 2484 
L 519 3200 
Q 816 3306 1134 3359 
Q 1453 3413 1806 3413 
Q 2697 3413 3111 3081 
Q 3525 2750 3525 2041 
z
M 2419 1044 
L 2419 1709 
L 2003 1709 
Q 1694 1709 1528 1540 
Q 1363 1372 1363 1056 
Q 1363 741 1483 584 
Q 1603 428 1850 428 
Q 2106 428 2262 597 
Q 2419 766 2419 1044 
z
" transform="scale(0.015625)"/>
      <path id="DejaVuSerif-Bold-74" d="M 634 2944 
L 153 2944 
L 153 3322 
L 634 3322 
L 634 4353 
L 1741 4353 
L 1741 3322 
L 2663 3322 
L 2663 2944 
L 1741 2944 
L 1741 909 
Q 1741 475 1809 369 
Q 1878 263 2059 263 
Q 2259 263 2356 397 
Q 2453 531 2459 813 
L 2925 813 
Q 2897 313 2651 111 
Q 2406 -91 1806 -91 
Q 1122 -91 878 123 
Q 634 338 634 909 
L 634 2944 
z
" transform="scale(0.015625)"/>
      <path id="DejaVuSerif-Bold-69" d="M 588 4263 
Q 588 4516 763 4689 
Q 938 4863 1191 4863 
Q 1438 4863 1611 4689 
Q 1784 4516 1784 4263 
Q 1784 4016 1611 3842 
Q 1438 3669 1191 3669 
Q 938 3669 763 3841 
Q 588 4013 588 4263 
z
M 1797 378 
L 2272 378 
L 2272 0 
L 219 0 
L 219 378 
L 691 378 
L 691 2944 
L 219 2944 
L 219 3322 
L 1797 3322 
L 1797 378 
z
" transform="scale(0.015625)"/>
     </defs>
     <use xlink:href="#DejaVuSerif-Bold-46"/>
     <use xlink:href="#DejaVuSerif-Bold-6f" transform="translate(65.496094 0)"/>
     <use xlink:href="#DejaVuSerif-Bold-75" transform="translate(132.195312 0)"/>
     <use xlink:href="#DejaVuSerif-Bold-6e" transform="translate(204.900391 0)"/>
     <use xlink:href="#DejaVuSerif-Bold-64" transform="translate(277.605469 0)"/>
     <use xlink:href="#DejaVuSerif-Bold-61" transform="translate(347.527344 0)"/>
     <use xlink:href="#DejaVuSerif-Bold-74" transform="translate(412.322266 0)"/>
     <use xlink:href="#DejaVuSerif-Bold-69" transform="translate(458.513672 0)"/>
     <use xlink:href="#DejaVuSerif-Bold-6f" transform="translate(496.501953 0)"/>
     <use xlink:href="#DejaVuSerif-Bold-6e" transform="translate(563.201172 0)"/>
    </g>
   </g>
   <g id="text_2">
    <!-- Clean-up &amp; systems -->
    <g style="fill: #2c3e50; opacity: 0.6" transform="translate(434.486052 103.605519) scale(0.075 -0.075)">
     <defs>
      <path id="Lato-Regular-43" d="M 3805 947 
Q 3856 947 3894 906 
L 4141 640 
Q 3859 314 3457 131 
Q 3056 -51 2486 -51 
Q 1994 -51 1590 120 
Q 1187 291 902 600 
Q 618 909 461 1341 
Q 304 1773 304 2291 
Q 304 2810 467 3242 
Q 630 3674 926 3984 
Q 1222 4294 1635 4465 
Q 2048 4637 2547 4637 
Q 3037 4637 3411 4480 
Q 3786 4323 4070 4054 
L 3866 3770 
Q 3846 3738 3816 3717 
Q 3786 3696 3734 3696 
Q 3677 3696 3593 3758 
Q 3510 3821 3376 3897 
Q 3242 3974 3040 4036 
Q 2838 4099 2544 4099 
Q 2189 4099 1894 3976 
Q 1600 3853 1387 3619 
Q 1174 3386 1056 3050 
Q 938 2714 938 2291 
Q 938 1862 1061 1526 
Q 1184 1190 1397 958 
Q 1610 726 1899 604 
Q 2189 483 2525 483 
Q 2730 483 2894 507 
Q 3059 531 3198 582 
Q 3338 634 3458 712 
Q 3578 790 3696 899 
Q 3750 947 3805 947 
z
" transform="scale(0.015625)"/>
      <path id="Lato-Regular-6c" d="M 1040 4714 
L 1040 0 
L 470 0 
L 470 4714 
L 1040 4714 
z
" transform="scale(0.015625)"/>
      <path id="Lato-Regular-65" d="M 1779 3293 
Q 2070 3293 2318 3195 
Q 2566 3098 2747 2914 
Q 2928 2730 3030 2459 
Q 3133 2189 3133 1843 
Q 3133 1709 3104 1664 
Q 3075 1619 2995 1619 
L 829 1619 
Q 835 1312 912 1085 
Q 989 858 1123 706 
Q 1258 554 1443 478 
Q 1629 403 1859 403 
Q 2074 403 2229 452 
Q 2384 502 2496 560 
Q 2608 618 2683 667 
Q 2758 717 2813 717 
Q 2883 717 2922 662 
L 3082 454 
Q 2976 326 2829 232 
Q 2682 138 2514 77 
Q 2346 16 2166 -14 
Q 1987 -45 1811 -45 
Q 1475 -45 1192 68 
Q 909 182 702 401 
Q 496 621 381 944 
Q 266 1267 266 1686 
Q 266 2026 370 2320 
Q 474 2614 669 2830 
Q 864 3046 1145 3169 
Q 1427 3293 1779 3293 
z
M 1792 2874 
Q 1379 2874 1142 2635 
Q 906 2397 848 1974 
L 2621 1974 
Q 2621 2173 2565 2337 
Q 2509 2502 2401 2622 
Q 2294 2742 2140 2808 
Q 1987 2874 1792 2874 
z
" transform="scale(0.015625)"/>
      <path id="Lato-Regular-61" d="M 2512 0 
Q 2429 0 2384 27 
Q 2339 54 2314 134 
L 2250 438 
Q 2122 323 1998 232 
Q 1875 141 1742 78 
Q 1610 16 1458 -17 
Q 1306 -51 1120 -51 
Q 931 -51 764 1 
Q 598 54 475 160 
Q 352 266 280 427 
Q 208 589 208 810 
Q 208 1002 313 1179 
Q 419 1357 656 1494 
Q 893 1632 1273 1720 
Q 1654 1808 2208 1821 
L 2208 2074 
Q 2208 2451 2045 2644 
Q 1882 2838 1568 2838 
Q 1357 2838 1214 2785 
Q 1072 2733 968 2667 
Q 864 2602 789 2549 
Q 714 2496 640 2496 
Q 582 2496 540 2526 
Q 499 2557 470 2602 
L 368 2784 
Q 637 3043 947 3171 
Q 1258 3299 1635 3299 
Q 1907 3299 2118 3209 
Q 2330 3120 2474 2960 
Q 2618 2800 2691 2573 
Q 2765 2346 2765 2074 
L 2765 0 
L 2512 0 
z
M 1290 349 
Q 1440 349 1565 379 
Q 1690 410 1800 466 
Q 1910 522 2011 603 
Q 2112 685 2208 787 
L 2208 1459 
Q 1814 1446 1537 1396 
Q 1261 1347 1086 1267 
Q 912 1187 833 1078 
Q 755 970 755 835 
Q 755 707 796 614 
Q 838 522 910 462 
Q 982 403 1080 376 
Q 1178 349 1290 349 
z
" transform="scale(0.015625)"/>
      <path id="Lato-Regular-6e" d="M 451 0 
L 451 3242 
L 794 3242 
Q 915 3242 944 3123 
L 989 2771 
Q 1200 3005 1462 3149 
Q 1725 3293 2067 3293 
Q 2333 3293 2536 3205 
Q 2739 3117 2875 2955 
Q 3011 2794 3081 2566 
Q 3152 2339 3152 2064 
L 3152 0 
L 2579 0 
L 2579 2064 
Q 2579 2432 2411 2635 
Q 2243 2838 1901 2838 
Q 1645 2838 1425 2716 
Q 1206 2595 1024 2387 
L 1024 0 
L 451 0 
z
" transform="scale(0.015625)"/>
      <path id="Lato-Regular-2d" d="M 400 2160 
L 1981 2160 
L 1981 1677 
L 400 1677 
L 400 2160 
z
" transform="scale(0.015625)"/>
      <path id="Lato-Regular-75" d="M 989 3242 
L 989 1174 
Q 989 806 1157 604 
Q 1325 403 1670 403 
Q 1920 403 2141 521 
Q 2362 640 2547 851 
L 2547 3242 
L 3117 3242 
L 3117 0 
L 2778 0 
Q 2656 0 2624 118 
L 2579 467 
Q 2368 234 2105 91 
Q 1843 -51 1504 -51 
Q 1238 -51 1035 37 
Q 832 125 694 285 
Q 557 445 488 672 
Q 419 899 419 1174 
L 419 3242 
L 989 3242 
z
" transform="scale(0.015625)"/>
      <path id="Lato-Regular-70" d="M 451 -1098 
L 451 3242 
L 794 3242 
Q 915 3242 944 3123 
L 992 2739 
Q 1200 2992 1469 3145 
Q 1738 3299 2083 3299 
Q 2365 3299 2592 3192 
Q 2819 3085 2979 2875 
Q 3139 2666 3225 2355 
Q 3312 2045 3312 1642 
Q 3312 1283 3216 974 
Q 3120 666 2939 440 
Q 2758 214 2497 84 
Q 2237 -45 1910 -45 
Q 1613 -45 1400 54 
Q 1187 154 1024 336 
L 1024 -1098 
L 451 -1098 
z
M 1898 2838 
Q 1619 2838 1409 2710 
Q 1200 2582 1024 2349 
L 1024 781 
Q 1178 570 1365 483 
Q 1552 397 1782 397 
Q 2237 397 2480 720 
Q 2723 1043 2723 1642 
Q 2723 1958 2667 2185 
Q 2611 2413 2505 2558 
Q 2400 2704 2246 2771 
Q 2093 2838 1898 2838 
z
" transform="scale(0.015625)"/>
      <path id="Lato-Regular-20" transform="scale(0.015625)"/>
      <path id="Lato-Regular-26" d="M 2134 4637 
Q 2387 4637 2595 4555 
Q 2803 4474 2953 4339 
Q 3104 4205 3192 4027 
Q 3280 3850 3293 3658 
L 2938 3587 
Q 2832 3562 2781 3686 
Q 2758 3770 2708 3859 
Q 2659 3949 2580 4022 
Q 2502 4096 2392 4144 
Q 2282 4192 2134 4192 
Q 1974 4192 1844 4141 
Q 1715 4090 1624 3998 
Q 1533 3907 1485 3784 
Q 1437 3661 1437 3517 
Q 1437 3405 1462 3302 
Q 1488 3200 1544 3094 
Q 1600 2989 1686 2880 
Q 1773 2771 1894 2650 
L 3213 1309 
Q 3334 1526 3406 1760 
Q 3478 1994 3504 2230 
Q 3510 2291 3542 2326 
Q 3574 2362 3632 2362 
L 3981 2362 
Q 3978 1994 3864 1640 
Q 3750 1286 3542 976 
L 4502 0 
L 3949 0 
Q 3856 0 3798 22 
Q 3741 45 3674 115 
L 3210 579 
Q 2909 288 2517 118 
Q 2125 -51 1654 -51 
Q 1398 -51 1153 35 
Q 909 122 713 286 
Q 518 451 400 688 
Q 282 925 282 1222 
Q 282 1446 357 1646 
Q 432 1846 565 2016 
Q 698 2186 882 2320 
Q 1066 2454 1283 2550 
Q 1085 2797 993 3030 
Q 902 3264 902 3514 
Q 902 3747 987 3952 
Q 1072 4157 1232 4309 
Q 1392 4461 1621 4549 
Q 1850 4637 2134 4637 
z
M 1754 413 
Q 2112 413 2397 544 
Q 2682 675 2899 893 
L 1546 2259 
Q 1206 2077 1035 1822 
Q 864 1568 864 1267 
Q 864 1059 941 900 
Q 1018 742 1142 633 
Q 1267 525 1427 469 
Q 1587 413 1754 413 
z
" transform="scale(0.015625)"/>
      <path id="Lato-Regular-73" d="M 2339 2707 
Q 2301 2637 2221 2637 
Q 2173 2637 2112 2672 
Q 2051 2707 1963 2750 
Q 1875 2794 1753 2830 
Q 1632 2867 1466 2867 
Q 1322 2867 1206 2830 
Q 1091 2794 1009 2730 
Q 928 2666 885 2581 
Q 842 2496 842 2397 
Q 842 2272 914 2189 
Q 986 2106 1104 2045 
Q 1222 1984 1372 1937 
Q 1523 1891 1681 1838 
Q 1840 1786 1990 1722 
Q 2141 1658 2259 1562 
Q 2378 1466 2450 1326 
Q 2522 1187 2522 992 
Q 2522 768 2442 577 
Q 2362 387 2205 248 
Q 2048 109 1821 29 
Q 1594 -51 1296 -51 
Q 957 -51 681 59 
Q 406 170 214 342 
L 349 560 
Q 374 602 409 624 
Q 445 646 499 646 
Q 557 646 621 601 
Q 685 557 776 502 
Q 867 448 998 403 
Q 1130 358 1325 358 
Q 1491 358 1616 401 
Q 1741 445 1824 518 
Q 1907 592 1947 688 
Q 1987 784 1987 893 
Q 1987 1027 1915 1115 
Q 1843 1203 1724 1265 
Q 1606 1328 1454 1374 
Q 1302 1421 1144 1472 
Q 986 1523 834 1588 
Q 682 1654 563 1753 
Q 445 1853 373 1998 
Q 301 2144 301 2352 
Q 301 2538 377 2709 
Q 454 2880 601 3009 
Q 749 3139 963 3216 
Q 1178 3293 1453 3293 
Q 1773 3293 2027 3192 
Q 2282 3091 2467 2915 
L 2339 2707 
z
" transform="scale(0.015625)"/>
      <path id="Lato-Regular-79" d="M 1440 -957 
Q 1411 -1021 1368 -1059 
Q 1325 -1098 1235 -1098 
L 813 -1098 
L 1405 189 
L 67 3242 
L 560 3242 
Q 634 3242 677 3205 
Q 720 3168 736 3123 
L 1603 1082 
Q 1629 1008 1651 939 
Q 1674 870 1690 797 
Q 1731 941 1786 1085 
L 2627 3123 
Q 2646 3174 2692 3208 
Q 2739 3242 2797 3242 
L 3248 3242 
L 1440 -957 
z
" transform="scale(0.015625)"/>
      <path id="Lato-Regular-74" d="M 1446 -51 
Q 1062 -51 856 163 
Q 650 378 650 781 
L 650 2765 
L 259 2765 
Q 208 2765 173 2795 
Q 138 2826 138 2890 
L 138 3117 
L 669 3184 
L 800 4186 
Q 810 4234 843 4264 
Q 877 4294 931 4294 
L 1219 4294 
L 1219 3178 
L 2157 3178 
L 2157 2765 
L 1219 2765 
L 1219 819 
Q 1219 614 1318 515 
Q 1418 416 1574 416 
Q 1664 416 1729 440 
Q 1795 464 1843 493 
Q 1891 522 1924 546 
Q 1958 570 1984 570 
Q 2029 570 2064 515 
L 2230 243 
Q 2083 106 1875 27 
Q 1667 -51 1446 -51 
z
" transform="scale(0.015625)"/>
      <path id="Lato-Regular-6d" d="M 451 0 
L 451 3242 
L 794 3242 
Q 915 3242 944 3123 
L 986 2790 
Q 1165 3011 1389 3152 
Q 1613 3293 1907 3293 
Q 2234 3293 2437 3110 
Q 2640 2928 2730 2618 
Q 2800 2794 2910 2922 
Q 3021 3050 3158 3133 
Q 3296 3216 3451 3254 
Q 3606 3293 3766 3293 
Q 4022 3293 4222 3211 
Q 4422 3130 4561 2973 
Q 4701 2816 4774 2587 
Q 4848 2358 4848 2064 
L 4848 0 
L 4275 0 
L 4275 2064 
Q 4275 2445 4108 2641 
Q 3942 2838 3629 2838 
Q 3488 2838 3361 2788 
Q 3235 2739 3139 2643 
Q 3043 2547 2987 2401 
Q 2931 2256 2931 2064 
L 2931 0 
L 2358 0 
L 2358 2064 
Q 2358 2454 2201 2646 
Q 2045 2838 1744 2838 
Q 1533 2838 1353 2724 
Q 1174 2611 1024 2416 
L 1024 0 
L 451 0 
z
" transform="scale(0.015625)"/>
     </defs>
     <use xlink:href="#Lato-Regular-43"/>
     <use xlink:href="#Lato-Regular-6c" transform="translate(66.800003 0)"/>
     <use xlink:href="#Lato-Regular-65" transform="translate(90.400009 0)"/>
     <use xlink:href="#Lato-Regular-61" transform="translate(143.200012 0)"/>
     <use xlink:href="#Lato-Regular-6e" transform="translate(192.900024 0)"/>
     <use xlink:href="#Lato-Regular-2d" transform="translate(248.700027 0)"/>
     <use xlink:href="#Lato-Regular-75" transform="translate(285.850037 0)"/>
     <use xlink:href="#Lato-Regular-70" transform="translate(341.600037 0)"/>
     <use xlink:href="#Lato-Regular-20" transform="translate(397.65004 0)"/>
     <use xlink:href="#Lato-Regular-26" transform="translate(423.250046 0)"/>
     <use xlink:href="#Lato-Regular-20" transform="translate(494.450058 0)"/>
     <use xlink:href="#Lato-Regular-73" transform="translate(520.050064 0)"/>
     <use xlink:href="#Lato-Regular-79" transform="translate(562.475067 0)"/>
     <use xlink:href="#Lato-Regular-73" transform="translate(613.15007 0)"/>
     <use xlink:href="#Lato-Regular-74" transform="translate(656.450073 0)"/>
     <use xlink:href="#Lato-Regular-65" transform="translate(692.050079 0)"/>
     <use xlink:href="#Lato-Regular-6d" transform="translate(744.850082 0)"/>
     <use xlink:href="#Lato-Regular-73" transform="translate(827.100098 0)"/>
    </g>
   </g>
   <g id="text_3">
    <!-- Analysis -->
    <g style="fill: #2c3e50" transform="translate(318.602285 85.02305) scale(0.1 -0.1)">
     <defs>
      <path id="DejaVuSerif-Bold-41" d="M -50 0 
L -50 378 
L 331 378 
L 2088 4666 
L 2834 4666 
L 4594 378 
L 5038 378 
L 5038 0 
L 2853 0 
L 2853 378 
L 3309 378 
L 2925 1331 
L 1172 1331 
L 781 378 
L 1338 378 
L 1338 0 
L -50 0 
z
M 1325 1709 
L 2772 1709 
L 2053 3494 
L 1325 1709 
z
" transform="scale(0.015625)"/>
      <path id="DejaVuSerif-Bold-6c" d="M 1797 378 
L 2272 378 
L 2272 0 
L 219 0 
L 219 378 
L 691 378 
L 691 4488 
L 219 4488 
L 219 4863 
L 1797 4863 
L 1797 378 
z
" transform="scale(0.015625)"/>
      <path id="DejaVuSerif-Bold-79" d="M 1997 -750 
Q 1847 -1116 1634 -1269 
Q 1422 -1422 1063 -1422 
Q 909 -1422 721 -1387 
Q 534 -1353 313 -1288 
L 313 -594 
L 666 -597 
Q 675 -838 779 -953 
Q 884 -1069 1094 -1069 
Q 1297 -1069 1422 -958 
Q 1547 -847 1672 -538 
L 1722 -422 
L 275 2944 
L -84 2944 
L -84 3322 
L 1831 3322 
L 1831 2944 
L 1434 2944 
L 2278 978 
L 3066 2944 
L 2625 2944 
L 2625 3322 
L 3872 3322 
L 3872 2944 
L 3469 2944 
L 1997 -750 
z
" transform="scale(0.015625)"/>
      <path id="DejaVuSerif-Bold-73" d="M 300 97 
L 300 1025 
L 653 1025 
Q 697 653 931 458 
Q 1166 263 1569 263 
Q 1906 263 2086 380 
Q 2266 497 2266 716 
Q 2266 916 2152 1025 
Q 2038 1134 1709 1216 
L 1253 1331 
Q 738 1459 506 1698 
Q 275 1938 275 2344 
Q 275 2884 650 3148 
Q 1025 3413 1806 3413 
Q 2100 3413 2433 3364 
Q 2766 3316 3169 3213 
L 3169 2375 
L 2816 2375 
Q 2788 2716 2573 2887 
Q 2359 3059 1959 3059 
Q 1622 3059 1448 2951 
Q 1275 2844 1275 2638 
Q 1275 2469 1375 2372 
Q 1475 2275 1734 2209 
L 2188 2094 
Q 2841 1928 3091 1684 
Q 3341 1441 3341 1006 
Q 3341 444 2939 176 
Q 2538 -91 1691 -91 
Q 1381 -91 1034 -44 
Q 688 3 300 97 
z
" transform="scale(0.015625)"/>
     </defs>
     <use xlink:href="#DejaVuSerif-Bold-41"/>
     <use xlink:href="#DejaVuSerif-Bold-6e" transform="translate(77.587891 0)"/>
     <use xlink:href="#DejaVuSerif-Bold-61" transform="translate(150.292969 0)"/>
     <use xlink:href="#DejaVuSerif-Bold-6c" transform="translate(215.087891 0)"/>
     <use xlink:href="#DejaVuSerif-Bold-79" transform="translate(253.076172 0)"/>
     <use xlink:href="#DejaVuSerif-Bold-73" transform="translate(311.181641 0)"/>
     <use xlink:href="#DejaVuSerif-Bold-69" transform="translate(367.480469 0)"/>
     <use xlink:href="#DejaVuSerif-Bold-73" transform="translate(405.46875 0)"/>
    </g>
   </g>
   <g id="text_4">
    <!-- Forecasting &amp; metrics -->
    <g style="fill: #2c3e50; opacity: 0.6" transform="translate(306.109511 103.538136) scale(0.075 -0.075)">
     <defs>
      <path id="Lato-Regular-46" d="M 3411 4586 
L 3411 4080 
L 1206 4080 
L 1206 2477 
L 3091 2477 
L 3091 1971 
L 1206 1971 
L 1206 0 
L 586 0 
L 586 4586 
L 3411 4586 
z
" transform="scale(0.015625)"/>
      <path id="Lato-Regular-6f" d="M 1818 3293 
Q 2173 3293 2457 3174 
Q 2742 3056 2944 2838 
Q 3146 2621 3253 2312 
Q 3360 2003 3360 1622 
Q 3360 1238 3253 931 
Q 3146 624 2944 406 
Q 2742 189 2457 72 
Q 2173 -45 1818 -45 
Q 1459 -45 1172 72 
Q 886 189 684 406 
Q 483 624 376 931 
Q 269 1238 269 1622 
Q 269 2003 376 2312 
Q 483 2621 684 2838 
Q 886 3056 1172 3174 
Q 1459 3293 1818 3293 
z
M 1818 400 
Q 2298 400 2534 721 
Q 2771 1043 2771 1619 
Q 2771 2198 2534 2521 
Q 2298 2845 1818 2845 
Q 1574 2845 1393 2761 
Q 1213 2678 1093 2521 
Q 973 2365 913 2136 
Q 854 1907 854 1619 
Q 854 1043 1092 721 
Q 1331 400 1818 400 
z
" transform="scale(0.015625)"/>
      <path id="Lato-Regular-72" d="M 451 0 
L 451 3242 
L 778 3242 
Q 870 3242 905 3206 
Q 941 3171 954 3085 
L 989 2592 
Q 1142 2925 1368 3112 
Q 1594 3299 1917 3299 
Q 2019 3299 2113 3276 
Q 2208 3254 2282 3206 
L 2240 2781 
Q 2221 2701 2144 2701 
Q 2099 2701 2012 2720 
Q 1926 2739 1818 2739 
Q 1664 2739 1542 2692 
Q 1421 2646 1326 2558 
Q 1232 2470 1158 2342 
Q 1085 2214 1024 2048 
L 1024 0 
L 451 0 
z
" transform="scale(0.015625)"/>
      <path id="Lato-Regular-63" d="M 2707 2666 
Q 2682 2630 2656 2611 
Q 2630 2592 2586 2592 
Q 2538 2592 2480 2632 
Q 2422 2672 2337 2720 
Q 2253 2768 2129 2808 
Q 2006 2848 1827 2848 
Q 1587 2848 1404 2763 
Q 1222 2678 1099 2518 
Q 976 2358 913 2131 
Q 851 1904 851 1622 
Q 851 1328 918 1099 
Q 986 870 1109 715 
Q 1232 560 1406 478 
Q 1581 397 1798 397 
Q 2006 397 2140 446 
Q 2275 496 2363 557 
Q 2451 618 2510 667 
Q 2570 717 2627 717 
Q 2698 717 2736 662 
L 2896 454 
Q 2790 323 2656 230 
Q 2522 138 2366 75 
Q 2211 13 2041 -16 
Q 1872 -45 1696 -45 
Q 1392 -45 1131 67 
Q 870 179 678 392 
Q 486 605 377 915 
Q 269 1226 269 1622 
Q 269 1984 369 2291 
Q 470 2598 664 2820 
Q 858 3043 1141 3168 
Q 1424 3293 1792 3293 
Q 2134 3293 2395 3182 
Q 2656 3072 2858 2870 
L 2707 2666 
z
" transform="scale(0.015625)"/>
      <path id="Lato-Regular-69" d="M 1053 3242 
L 1053 0 
L 483 0 
L 483 3242 
L 1053 3242 
z
M 1174 4259 
Q 1174 4176 1140 4104 
Q 1107 4032 1051 3976 
Q 995 3920 920 3888 
Q 845 3856 762 3856 
Q 678 3856 606 3888 
Q 534 3920 480 3976 
Q 426 4032 394 4104 
Q 362 4176 362 4259 
Q 362 4342 394 4417 
Q 426 4493 480 4549 
Q 534 4605 606 4637 
Q 678 4669 762 4669 
Q 845 4669 920 4637 
Q 995 4605 1051 4549 
Q 1107 4493 1140 4417 
Q 1174 4342 1174 4259 
z
" transform="scale(0.015625)"/>
      <path id="Lato-Regular-67" d="M 1581 3296 
Q 1792 3296 1974 3249 
Q 2157 3203 2307 3114 
L 3187 3114 
L 3187 2902 
Q 3187 2797 3053 2768 
L 2685 2717 
Q 2794 2509 2794 2253 
Q 2794 2016 2702 1822 
Q 2611 1629 2451 1491 
Q 2291 1354 2067 1280 
Q 1843 1206 1581 1206 
Q 1350 1206 1149 1261 
Q 1046 1197 993 1123 
Q 941 1050 941 979 
Q 941 864 1035 805 
Q 1130 746 1283 720 
Q 1437 694 1633 688 
Q 1830 682 2036 667 
Q 2243 653 2440 617 
Q 2637 582 2790 502 
Q 2944 422 3038 281 
Q 3133 141 3133 -83 
Q 3133 -291 3029 -486 
Q 2925 -682 2729 -834 
Q 2534 -986 2251 -1077 
Q 1968 -1168 1613 -1168 
Q 1258 -1168 992 -1097 
Q 726 -1027 550 -908 
Q 374 -790 286 -635 
Q 198 -480 198 -310 
Q 198 -70 348 96 
Q 499 262 758 362 
Q 614 426 531 533 
Q 448 640 448 822 
Q 448 893 473 968 
Q 499 1043 552 1116 
Q 605 1190 681 1257 
Q 758 1325 861 1376 
Q 621 1510 486 1734 
Q 352 1958 352 2253 
Q 352 2490 443 2683 
Q 534 2877 697 3013 
Q 861 3149 1086 3222 
Q 1312 3296 1581 3296 
z
M 2608 -176 
Q 2608 -58 2541 16 
Q 2474 90 2360 131 
Q 2246 173 2096 190 
Q 1946 208 1778 217 
Q 1610 227 1437 236 
Q 1264 246 1104 269 
Q 925 186 811 61 
Q 698 -64 698 -237 
Q 698 -346 754 -440 
Q 810 -534 925 -603 
Q 1040 -672 1214 -712 
Q 1389 -752 1626 -752 
Q 1856 -752 2038 -710 
Q 2221 -669 2347 -592 
Q 2474 -515 2541 -409 
Q 2608 -304 2608 -176 
z
M 1581 1584 
Q 1754 1584 1885 1632 
Q 2016 1680 2105 1766 
Q 2195 1853 2240 1973 
Q 2285 2093 2285 2237 
Q 2285 2534 2104 2710 
Q 1923 2886 1581 2886 
Q 1235 2886 1054 2710 
Q 874 2534 874 2237 
Q 874 2093 920 1973 
Q 966 1853 1056 1766 
Q 1146 1680 1277 1632 
Q 1408 1584 1581 1584 
z
" transform="scale(0.015625)"/>
     </defs>
     <use xlink:href="#Lato-Regular-46"/>
     <use xlink:href="#Lato-Regular-6f" transform="translate(52.175003 0)"/>
     <use xlink:href="#Lato-Regular-72" transform="translate(108.875015 0)"/>
     <use xlink:href="#Lato-Regular-65" transform="translate(143.275024 0)"/>
     <use xlink:href="#Lato-Regular-63" transform="translate(196.075027 0)"/>
     <use xlink:href="#Lato-Regular-61" transform="translate(243.825027 0)"/>
     <use xlink:href="#Lato-Regular-73" transform="translate(293.52504 0)"/>
     <use xlink:href="#Lato-Regular-74" transform="translate(336.825043 0)"/>
     <use xlink:href="#Lato-Regular-69" transform="translate(372.675049 0)"/>
     <use xlink:href="#Lato-Regular-6e" transform="translate(396.675049 0)"/>
     <use xlink:href="#Lato-Regular-67" transform="translate(452.475052 0)"/>
     <use xlink:href="#Lato-Regular-20" transform="translate(504.475052 0)"/>
     <use xlink:href="#Lato-Regular-26" transform="translate(530.075058 0)"/>
     <use xlink:href="#Lato-Regular-20" transform="translate(601.27507 0)"/>
     <use xlink:href="#Lato-Regular-6d" transform="translate(626.875076 0)"/>
     <use xlink:href="#Lato-Regular-65" transform="translate(709.125092 0)"/>
     <use xlink:href="#Lato-Regular-74" transform="translate(761.550095 0)"/>
     <use xlink:href="#Lato-Regular-72" transform="translate(797.400101 0)"/>
     <use xlink:href="#Lato-Regular-69" transform="translate(833.80011 0)"/>
     <use xlink:href="#Lato-Regular-63" transform="translate(857.80011 0)"/>
     <use xlink:href="#Lato-Regular-73" transform="translate(905.55011 0)"/>
    </g>
   </g>
   <g id="text_5">
    <!-- Strategic -->
    <g style="fill: #2c3e50" transform="translate(190.531604 85.02305) scale(0.1 -0.1)">
     <defs>
      <path id="DejaVuSerif-Bold-53" d="M 494 225 
L 494 1331 
L 891 1331 
Q 981 806 1318 547 
Q 1656 288 2253 288 
Q 2738 288 2991 472 
Q 3244 656 3244 1013 
Q 3244 1294 3072 1450 
Q 2900 1606 2363 1741 
L 1663 1913 
Q 978 2088 700 2398 
Q 422 2709 422 3284 
Q 422 3978 883 4364 
Q 1344 4750 2175 4750 
Q 2584 4750 3026 4681 
Q 3469 4613 3944 4475 
L 3944 3444 
L 3547 3444 
Q 3456 3925 3150 4148 
Q 2844 4372 2278 4372 
Q 1816 4372 1580 4211 
Q 1344 4050 1344 3731 
Q 1344 3441 1506 3289 
Q 1669 3138 2303 2975 
L 3003 2803 
Q 3653 2641 3945 2297 
Q 4238 1953 4238 1350 
Q 4238 644 3750 276 
Q 3263 -91 2316 -91 
Q 1859 -91 1409 -12 
Q 959 66 494 225 
z
" transform="scale(0.015625)"/>
      <path id="DejaVuSerif-Bold-72" d="M 3438 3359 
L 3438 2369 
L 3084 2369 
Q 3066 2634 2941 2764 
Q 2816 2894 2578 2894 
Q 2216 2894 2006 2575 
Q 1797 2256 1797 1691 
L 1797 378 
L 2400 378 
L 2400 0 
L 219 0 
L 219 378 
L 691 378 
L 691 2944 
L 184 2944 
L 184 3322 
L 1797 3322 
L 1797 2731 
Q 1959 3078 2226 3245 
Q 2494 3413 2881 3413 
Q 2978 3413 3117 3398 
Q 3256 3384 3438 3359 
z
" transform="scale(0.015625)"/>
      <path id="DejaVuSerif-Bold-65" d="M 2566 1875 
Q 2566 2531 2444 2795 
Q 2322 3059 2028 3059 
Q 1744 3059 1620 2800 
Q 1497 2541 1497 1931 
L 1497 1875 
L 2566 1875 
z
M 3781 1503 
L 1497 1503 
L 1497 1478 
Q 1497 834 1690 548 
Q 1884 263 2316 263 
Q 2675 263 2897 453 
Q 3119 644 3181 1006 
L 3700 1006 
Q 3566 441 3166 175 
Q 2766 -91 2047 -91 
Q 1184 -91 723 364 
Q 263 819 263 1663 
Q 263 2488 734 2950 
Q 1206 3413 2047 3413 
Q 2872 3413 3312 2927 
Q 3753 2441 3781 1503 
z
" transform="scale(0.015625)"/>
      <path id="DejaVuSerif-Bold-67" d="M 3853 2944 
L 3853 44 
Q 3853 -656 3354 -1039 
Q 2856 -1422 1947 -1422 
Q 1616 -1422 1275 -1370 
Q 934 -1319 575 -1216 
L 575 -422 
L 928 -422 
Q 975 -750 1192 -909 
Q 1409 -1069 1813 -1069 
Q 2325 -1069 2536 -823 
Q 2747 -578 2747 44 
L 2747 422 
Q 2606 163 2367 36 
Q 2128 -91 1778 -91 
Q 1072 -91 667 378 
Q 263 847 263 1663 
Q 263 2481 667 2947 
Q 1072 3413 1778 3413 
Q 2128 3413 2367 3286 
Q 2606 3159 2747 2900 
L 2747 3322 
L 4325 3322 
L 4325 2944 
L 3853 2944 
z
M 2747 1825 
Q 2747 2406 2597 2665 
Q 2447 2925 2119 2925 
Q 1775 2925 1636 2651 
Q 1497 2378 1497 1663 
Q 1497 947 1637 672 
Q 1778 397 2119 397 
Q 2447 397 2597 656 
Q 2747 916 2747 1497 
L 2747 1825 
z
" transform="scale(0.015625)"/>
      <path id="DejaVuSerif-Bold-63" d="M 3609 1038 
Q 3491 469 3123 189 
Q 2756 -91 2125 -91 
Q 1238 -91 750 368 
Q 263 828 263 1663 
Q 263 2488 744 2950 
Q 1225 3413 2081 3413 
Q 2428 3413 2781 3347 
Q 3134 3281 3500 3150 
L 3500 2228 
L 3150 2228 
Q 3100 2650 2903 2854 
Q 2706 3059 2350 3059 
Q 1888 3059 1692 2746 
Q 1497 2434 1497 1663 
Q 1497 909 1687 586 
Q 1878 263 2309 263 
Q 2644 263 2845 463 
Q 3047 663 3091 1038 
L 3609 1038 
z
" transform="scale(0.015625)"/>
     </defs>
     <use xlink:href="#DejaVuSerif-Bold-53"/>
     <use xlink:href="#DejaVuSerif-Bold-74" transform="translate(72.216797 0)"/>
     <use xlink:href="#DejaVuSerif-Bold-72" transform="translate(118.408203 0)"/>
     <use xlink:href="#DejaVuSerif-Bold-61" transform="translate(171.09375 0)"/>
     <use xlink:href="#DejaVuSerif-Bold-74" transform="translate(235.888672 0)"/>
     <use xlink:href="#DejaVuSerif-Bold-65" transform="translate(282.080078 0)"/>
     <use xlink:href="#DejaVuSerif-Bold-67" transform="translate(345.703125 0)"/>
     <use xlink:href="#DejaVuSerif-Bold-69" transform="translate(415.625 0)"/>
     <use xlink:href="#DejaVuSerif-Bold-63" transform="translate(453.613281 0)"/>
    </g>
   </g>
   <g id="text_6">
    <!-- Board packs &amp; modelling -->
    <g style="fill: #2c3e50; opacity: 0.6" transform="translate(175.642932 103.564504) scale(0.075 -0.075)">
     <defs>
      <path id="Lato-Regular-42" d="M 586 0 
L 586 4586 
L 2048 4586 
Q 2470 4586 2776 4502 
Q 3082 4419 3278 4265 
Q 3475 4112 3568 3889 
Q 3661 3667 3661 3389 
Q 3661 3219 3608 3062 
Q 3555 2906 3449 2771 
Q 3344 2637 3182 2531 
Q 3021 2426 2803 2358 
Q 3306 2259 3562 1996 
Q 3818 1734 3818 1306 
Q 3818 1014 3710 774 
Q 3603 534 3396 361 
Q 3190 189 2889 94 
Q 2589 0 2205 0 
L 586 0 
z
M 1203 2090 
L 1203 493 
L 2195 493 
Q 2461 493 2653 553 
Q 2845 614 2968 724 
Q 3091 835 3148 987 
Q 3206 1139 3206 1322 
Q 3206 1677 2953 1883 
Q 2701 2090 2195 2090 
L 1203 2090 
z
M 1203 2531 
L 2022 2531 
Q 2285 2531 2478 2588 
Q 2672 2646 2798 2748 
Q 2925 2851 2985 2996 
Q 3046 3142 3046 3315 
Q 3046 3722 2803 3909 
Q 2560 4096 2048 4096 
L 1203 4096 
L 1203 2531 
z
" transform="scale(0.015625)"/>
      <path id="Lato-Regular-64" d="M 2794 0 
Q 2672 0 2640 118 
L 2589 512 
Q 2381 259 2113 107 
Q 1846 -45 1501 -45 
Q 1222 -45 995 62 
Q 768 170 608 378 
Q 448 586 361 896 
Q 275 1206 275 1610 
Q 275 1968 371 2277 
Q 467 2586 646 2813 
Q 826 3040 1086 3169 
Q 1347 3299 1674 3299 
Q 1971 3299 2184 3198 
Q 2397 3098 2563 2915 
L 2563 4714 
L 3133 4714 
L 3133 0 
L 2794 0 
z
M 1686 416 
Q 1968 416 2177 544 
Q 2387 672 2563 906 
L 2563 2470 
Q 2403 2682 2217 2768 
Q 2032 2854 1802 2854 
Q 1350 2854 1107 2531 
Q 864 2208 864 1610 
Q 864 1293 918 1067 
Q 973 842 1078 696 
Q 1184 550 1337 483 
Q 1491 416 1686 416 
z
" transform="scale(0.015625)"/>
      <path id="Lato-Regular-6b" d="M 1024 4714 
L 1024 1939 
L 1171 1939 
Q 1235 1939 1278 1956 
Q 1322 1974 1370 2029 
L 2394 3126 
Q 2438 3181 2488 3211 
Q 2538 3242 2621 3242 
L 3136 3242 
L 1942 1971 
Q 1856 1862 1757 1802 
Q 1814 1763 1860 1713 
Q 1907 1664 1949 1600 
L 3216 0 
L 2707 0 
Q 2634 0 2581 24 
Q 2528 48 2490 112 
L 1424 1440 
Q 1376 1507 1329 1528 
Q 1283 1549 1187 1549 
L 1024 1549 
L 1024 0 
L 451 0 
L 451 4714 
L 1024 4714 
z
" transform="scale(0.015625)"/>
     </defs>
     <use xlink:href="#Lato-Regular-42"/>
     <use xlink:href="#Lato-Regular-6f" transform="translate(63.900009 0)"/>
     <use xlink:href="#Lato-Regular-61" transform="translate(120.600021 0)"/>
     <use xlink:href="#Lato-Regular-72" transform="translate(170.300034 0)"/>
     <use xlink:href="#Lato-Regular-64" transform="translate(204.700043 0)"/>
     <use xlink:href="#Lato-Regular-20" transform="translate(260.700043 0)"/>
     <use xlink:href="#Lato-Regular-70" transform="translate(286.300049 0)"/>
     <use xlink:href="#Lato-Regular-61" transform="translate(342.350052 0)"/>
     <use xlink:href="#Lato-Regular-63" transform="translate(392.050064 0)"/>
     <use xlink:href="#Lato-Regular-6b" transform="translate(439.800064 0)"/>
     <use xlink:href="#Lato-Regular-73" transform="translate(490.600067 0)"/>
     <use xlink:href="#Lato-Regular-20" transform="translate(533.90007 0)"/>
     <use xlink:href="#Lato-Regular-26" transform="translate(559.500076 0)"/>
     <use xlink:href="#Lato-Regular-20" transform="translate(630.700089 0)"/>
     <use xlink:href="#Lato-Regular-6d" transform="translate(656.300095 0)"/>
     <use xlink:href="#Lato-Regular-6f" transform="translate(738.55011 0)"/>
     <use xlink:href="#Lato-Regular-64" transform="translate(795.250122 0)"/>
     <use xlink:href="#Lato-Regular-65" transform="translate(851.250122 0)"/>
     <use xlink:href="#Lato-Regular-6c" transform="translate(904.050125 0)"/>
     <use xlink:href="#Lato-Regular-6c" transform="translate(927.650131 0)"/>
     <use xlink:href="#Lato-Regular-69" transform="translate(951.250137 0)"/>
     <use xlink:href="#Lato-Regular-6e" transform="translate(975.250137 0)"/>
     <use xlink:href="#Lato-Regular-67" transform="translate(1031.05014 0)"/>
    </g>
   </g>
   <g id="text_7">
    <!-- Deal-Ready -->
    <g style="fill: #1a2a3a" transform="translate(59.113267 85.02305) scale(0.1 -0.1)">
     <defs>
      <path id="DejaVuSerif-Bold-44" d="M 2100 378 
L 2534 378 
Q 3266 378 3605 847 
Q 3944 1316 3944 2338 
Q 3944 3353 3606 3820 
Q 3269 4288 2534 4288 
L 2100 4288 
L 2100 378 
z
M 300 0 
L 300 378 
L 897 378 
L 897 4288 
L 300 4288 
L 300 4666 
L 2694 4666 
Q 3950 4666 4615 4066 
Q 5281 3466 5281 2338 
Q 5281 1203 4614 601 
Q 3947 0 2694 0 
L 300 0 
z
" transform="scale(0.015625)"/>
      <path id="DejaVuSerif-Bold-2d" d="M 347 2138 
L 2309 2138 
L 2309 1294 
L 347 1294 
L 347 2138 
z
" transform="scale(0.015625)"/>
      <path id="DejaVuSerif-Bold-52" d="M 3397 2278 
Q 3675 2238 3865 2094 
Q 4056 1950 4197 1678 
L 4878 378 
L 5356 378 
L 5356 0 
L 3822 0 
L 3078 1409 
Q 2863 1847 2711 1967 
Q 2559 2088 2291 2088 
L 2100 2088 
L 2100 378 
L 2700 378 
L 2700 0 
L 300 0 
L 300 378 
L 897 378 
L 897 4288 
L 300 4288 
L 300 4666 
L 2963 4666 
Q 3775 4666 4217 4339 
Q 4659 4013 4659 3413 
Q 4659 2925 4345 2642 
Q 4031 2359 3397 2278 
z
M 2100 2463 
L 2509 2463 
Q 2947 2463 3183 2700 
Q 3419 2938 3419 3378 
Q 3419 3819 3183 4053 
Q 2947 4288 2509 4288 
L 2100 4288 
L 2100 2463 
z
" transform="scale(0.015625)"/>
     </defs>
     <use xlink:href="#DejaVuSerif-Bold-44"/>
     <use xlink:href="#DejaVuSerif-Bold-65" transform="translate(86.71875 0)"/>
     <use xlink:href="#DejaVuSerif-Bold-61" transform="translate(150.341797 0)"/>
     <use xlink:href="#DejaVuSerif-Bold-6c" transform="translate(215.136719 0)"/>
     <use xlink:href="#DejaVuSerif-Bold-2d" transform="translate(253.125 0)"/>
     <use xlink:href="#DejaVuSerif-Bold-52" transform="translate(294.628906 0)"/>
     <use xlink:href="#DejaVuSerif-Bold-65" transform="translate(377.734375 0)"/>
     <use xlink:href="#DejaVuSerif-Bold-61" transform="translate(441.357422 0)"/>
     <use xlink:href="#DejaVuSerif-Bold-64" transform="translate(506.152344 0)"/>
     <use xlink:href="#DejaVuSerif-Bold-79" transform="translate(576.074219 0)"/>
    </g>
   </g>
   <g id="text_8">
    <!-- Data room &amp; diligence -->
    <g style="fill: #1a2a3a; opacity: 0.6" transform="translate(54.275962 103.564504) scale(0.075 -0.075)">
     <defs>
      <path id="Lato-Regular-44" d="M 4560 2291 
Q 4560 1776 4397 1353 
Q 4234 931 3936 630 
Q 3638 330 3220 165 
Q 2803 0 2298 0 
L 586 0 
L 586 4586 
L 2298 4586 
Q 2803 4586 3220 4421 
Q 3638 4256 3936 3953 
Q 4234 3651 4397 3228 
Q 4560 2806 4560 2291 
z
M 3923 2291 
Q 3923 2714 3808 3046 
Q 3693 3379 3481 3609 
Q 3270 3840 2969 3961 
Q 2669 4083 2298 4083 
L 1206 4083 
L 1206 502 
L 2298 502 
Q 2669 502 2969 624 
Q 3270 746 3481 974 
Q 3693 1203 3808 1536 
Q 3923 1869 3923 2291 
z
" transform="scale(0.015625)"/>
     </defs>
     <use xlink:href="#Lato-Regular-44"/>
     <use xlink:href="#Lato-Regular-61" transform="translate(74.800018 0)"/>
     <use xlink:href="#Lato-Regular-74" transform="translate(123.875031 0)"/>
     <use xlink:href="#Lato-Regular-61" transform="translate(159.725037 0)"/>
     <use xlink:href="#Lato-Regular-20" transform="translate(209.425049 0)"/>
     <use xlink:href="#Lato-Regular-72" transform="translate(235.025055 0)"/>
     <use xlink:href="#Lato-Regular-6f" transform="translate(269.425064 0)"/>
     <use xlink:href="#Lato-Regular-6f" transform="translate(326.125076 0)"/>
     <use xlink:href="#Lato-Regular-6d" transform="translate(382.825089 0)"/>
     <use xlink:href="#Lato-Regular-20" transform="translate(465.075104 0)"/>
     <use xlink:href="#Lato-Regular-26" transform="translate(490.67511 0)"/>
     <use xlink:href="#Lato-Regular-20" transform="translate(561.875122 0)"/>
     <use xlink:href="#Lato-Regular-64" transform="translate(587.475128 0)"/>
     <use xlink:href="#Lato-Regular-69" transform="translate(643.475128 0)"/>
     <use xlink:href="#Lato-Regular-6c" transform="translate(667.475128 0)"/>
     <use xlink:href="#Lato-Regular-69" transform="translate(691.075134 0)"/>
     <use xlink:href="#Lato-Regular-67" transform="translate(715.075134 0)"/>
     <use xlink:href="#Lato-Regular-65" transform="translate(766.325134 0)"/>
     <use xlink:href="#Lato-Regular-6e" transform="translate(819.125137 0)"/>
     <use xlink:href="#Lato-Regular-63" transform="translate(874.92514 0)"/>
     <use xlink:href="#Lato-Regular-65" transform="translate(921.80014 0)"/>
    </g>
   </g>
   <g id="patch_6">
    <path d="M 538.296633 150.84 
Q 278.973739 150.84 20.992486 150.84 
" style="fill: none; stroke: #2c3e50; stroke-opacity: 0.25098; stroke-width: 1.2; stroke-linecap: round"/>
    <path d="M 25.392486 153.04 
L 20.992486 150.84 
L 25.392486 148.64 
" style="fill: none; stroke: #2c3e50; stroke-opacity: 0.25098; stroke-width: 1.2; stroke-linecap: round"/>
   </g>
   <g id="text_9">
    <!-- 24 months -->
    <g style="fill: #888888" transform="translate(511.020259 178.830962) scale(0.08 -0.08)">
     <defs>
      <path id="Lato-Regular-32" d="M 1891 4637 
Q 2182 4637 2435 4550 
Q 2688 4464 2873 4299 
Q 3059 4134 3164 3897 
Q 3270 3661 3270 3360 
Q 3270 3104 3193 2885 
Q 3117 2666 2985 2467 
Q 2854 2269 2683 2080 
Q 2512 1891 2320 1699 
L 1110 464 
Q 1238 499 1369 520 
Q 1501 541 1622 541 
L 3158 541 
Q 3251 541 3305 486 
Q 3360 432 3360 346 
L 3360 0 
L 301 0 
L 301 195 
Q 301 256 326 320 
Q 352 384 406 438 
L 1875 1914 
Q 2058 2099 2208 2270 
Q 2358 2442 2464 2614 
Q 2570 2787 2627 2964 
Q 2685 3142 2685 3344 
Q 2685 3546 2621 3698 
Q 2557 3850 2446 3949 
Q 2336 4048 2185 4097 
Q 2035 4147 1862 4147 
Q 1686 4147 1539 4096 
Q 1392 4045 1278 3953 
Q 1165 3862 1088 3737 
Q 1011 3613 979 3462 
Q 941 3350 875 3313 
Q 810 3277 691 3293 
L 394 3344 
Q 438 3658 568 3899 
Q 698 4141 894 4304 
Q 1091 4467 1344 4552 
Q 1597 4637 1891 4637 
z
" transform="scale(0.015625)"/>
      <path id="Lato-Regular-34" d="M 2835 1654 
L 3530 1654 
L 3530 1328 
Q 3530 1277 3499 1241 
Q 3469 1206 3405 1206 
L 2835 1206 
L 2835 0 
L 2336 0 
L 2336 1206 
L 301 1206 
Q 237 1206 190 1243 
Q 144 1280 131 1334 
L 74 1626 
L 2304 4586 
L 2835 4586 
L 2835 1654 
z
M 2336 3546 
Q 2336 3629 2341 3726 
Q 2346 3824 2362 3926 
L 691 1654 
L 2336 1654 
L 2336 3546 
z
" transform="scale(0.015625)"/>
      <path id="Lato-Regular-68" d="M 451 0 
L 451 4714 
L 1024 4714 
L 1024 2806 
Q 1232 3027 1485 3160 
Q 1738 3293 2067 3293 
Q 2333 3293 2536 3205 
Q 2739 3117 2875 2955 
Q 3011 2794 3081 2566 
Q 3152 2339 3152 2064 
L 3152 0 
L 2579 0 
L 2579 2064 
Q 2579 2432 2411 2635 
Q 2243 2838 1901 2838 
Q 1645 2838 1425 2716 
Q 1206 2595 1024 2387 
L 1024 0 
L 451 0 
z
" transform="scale(0.015625)"/>
     </defs>
     <use xlink:href="#Lato-Regular-32"/>
     <use xlink:href="#Lato-Regular-34" transform="translate(58 0)"/>
     <use xlink:href="#Lato-Regular-20" transform="translate(116 0)"/>
     <use xlink:href="#Lato-Regular-6d" transform="translate(141.600006 0)"/>
     <use xlink:href="#Lato-Regular-6f" transform="translate(223.850021 0)"/>
     <use xlink:href="#Lato-Regular-6e" transform="translate(280.550034 0)"/>
     <use xlink:href="#Lato-Regular-74" transform="translate(335.600037 0)"/>
     <use xlink:href="#Lato-Regular-68" transform="translate(371.450043 0)"/>
     <use xlink:href="#Lato-Regular-73" transform="translate(427.250046 0)"/>
    </g>
    <!-- before -->
    <g style="fill: #888888" transform="translate(518.416509 187.274462) scale(0.08 -0.08)">
     <defs>
      <path id="Lato-Regular-62" d="M 451 0 
L 451 4714 
L 1024 4714 
L 1024 2771 
Q 1226 3011 1485 3152 
Q 1744 3293 2080 3293 
Q 2365 3293 2593 3184 
Q 2822 3075 2982 2868 
Q 3142 2662 3227 2368 
Q 3312 2074 3312 1706 
Q 3312 1312 3216 989 
Q 3120 666 2939 437 
Q 2758 208 2499 81 
Q 2240 -45 1917 -45 
Q 1597 -45 1377 75 
Q 1158 195 995 416 
L 966 122 
Q 941 0 819 0 
L 451 0 
z
M 1891 2838 
Q 1613 2838 1405 2710 
Q 1197 2582 1024 2349 
L 1024 781 
Q 1181 570 1368 483 
Q 1555 397 1779 397 
Q 2237 397 2480 720 
Q 2723 1043 2723 1683 
Q 2723 2278 2507 2558 
Q 2291 2838 1891 2838 
z
" transform="scale(0.015625)"/>
      <path id="Lato-Regular-66" d="M 662 0 
L 662 2755 
L 304 2797 
Q 237 2813 193 2846 
Q 150 2880 150 2944 
L 150 3178 
L 662 3178 
L 662 3491 
Q 662 3770 740 3986 
Q 819 4202 964 4350 
Q 1110 4499 1315 4576 
Q 1520 4653 1776 4653 
Q 1994 4653 2176 4589 
L 2163 4304 
Q 2157 4227 2078 4220 
Q 2000 4214 1869 4214 
Q 1722 4214 1602 4176 
Q 1482 4138 1395 4051 
Q 1309 3965 1262 3824 
Q 1216 3683 1216 3475 
L 1216 3178 
L 2150 3178 
L 2150 2765 
L 1235 2765 
L 1235 0 
L 662 0 
z
" transform="scale(0.015625)"/>
     </defs>
     <use xlink:href="#Lato-Regular-62"/>
     <use xlink:href="#Lato-Regular-65" transform="translate(56 0)"/>
     <use xlink:href="#Lato-Regular-66" transform="translate(108.300003 0)"/>
     <use xlink:href="#Lato-Regular-6f" transform="translate(141.725006 0)"/>
     <use xlink:href="#Lato-Regular-72" transform="translate(198.425018 0)"/>
     <use xlink:href="#Lato-Regular-65" transform="translate(232.825027 0)"/>
    </g>
   </g>
   <g id="text_10">
    <!-- 18 months -->
    <g style="fill: #888888" transform="translate(385.586297 178.830962) scale(0.08 -0.08)">
     <defs>
      <path id="Lato-Regular-31" d="M 800 435 
L 1782 435 
L 1782 3562 
Q 1782 3696 1792 3846 
L 976 3146 
Q 934 3110 892 3102 
Q 851 3094 816 3100 
Q 781 3107 750 3126 
Q 720 3146 704 3168 
L 525 3414 
L 1891 4595 
L 2355 4595 
L 2355 435 
L 3258 435 
L 3258 0 
L 800 0 
L 800 435 
z
" transform="scale(0.015625)"/>
      <path id="Lato-Regular-38" d="M 1856 -51 
Q 1514 -51 1229 40 
Q 944 131 739 300 
Q 534 470 422 712 
Q 310 954 310 1254 
Q 310 1696 540 1982 
Q 771 2269 1200 2390 
Q 838 2525 654 2792 
Q 470 3059 470 3430 
Q 470 3683 569 3904 
Q 669 4125 851 4288 
Q 1034 4451 1288 4544 
Q 1542 4637 1856 4637 
Q 2166 4637 2422 4544 
Q 2678 4451 2860 4288 
Q 3043 4125 3142 3904 
Q 3242 3683 3242 3430 
Q 3242 3059 3056 2792 
Q 2870 2525 2512 2390 
Q 2941 2269 3171 1982 
Q 3402 1696 3402 1254 
Q 3402 954 3288 712 
Q 3174 470 2971 300 
Q 2768 131 2483 40 
Q 2198 -51 1856 -51 
z
M 1856 403 
Q 2080 403 2257 465 
Q 2435 528 2558 641 
Q 2682 755 2747 913 
Q 2813 1072 2813 1264 
Q 2813 1501 2734 1669 
Q 2656 1837 2523 1942 
Q 2390 2048 2217 2097 
Q 2045 2147 1856 2147 
Q 1667 2147 1494 2097 
Q 1322 2048 1189 1942 
Q 1056 1837 977 1669 
Q 899 1501 899 1264 
Q 899 1072 964 913 
Q 1030 755 1153 641 
Q 1277 528 1454 465 
Q 1632 403 1856 403 
z
M 1856 2605 
Q 2080 2605 2238 2673 
Q 2397 2742 2496 2856 
Q 2595 2970 2640 3117 
Q 2685 3264 2685 3421 
Q 2685 3581 2632 3721 
Q 2579 3862 2475 3968 
Q 2371 4074 2216 4134 
Q 2061 4195 1856 4195 
Q 1651 4195 1496 4134 
Q 1341 4074 1237 3968 
Q 1133 3862 1080 3721 
Q 1027 3581 1027 3421 
Q 1027 3264 1072 3117 
Q 1117 2970 1216 2856 
Q 1315 2742 1473 2673 
Q 1632 2605 1856 2605 
z
" transform="scale(0.015625)"/>
     </defs>
     <use xlink:href="#Lato-Regular-31"/>
     <use xlink:href="#Lato-Regular-38" transform="translate(58 0)"/>
     <use xlink:href="#Lato-Regular-20" transform="translate(116 0)"/>
     <use xlink:href="#Lato-Regular-6d" transform="translate(141.600006 0)"/>
     <use xlink:href="#Lato-Regular-6f" transform="translate(223.850021 0)"/>
     <use xlink:href="#Lato-Regular-6e" transform="translate(280.550034 0)"/>
     <use xlink:href="#Lato-Regular-74" transform="translate(335.600037 0)"/>
     <use xlink:href="#Lato-Regular-68" transform="translate(371.450043 0)"/>
     <use xlink:href="#Lato-Regular-73" transform="translate(427.250046 0)"/>
    </g>
   </g>
   <g id="text_11">
    <!-- 12 months -->
    <g style="fill: #888888" transform="translate(260.152335 178.830962) scale(0.08 -0.08)">
     <use xlink:href="#Lato-Regular-31"/>
     <use xlink:href="#Lato-Regular-32" transform="translate(58 0)"/>
     <use xlink:href="#Lato-Regular-20" transform="translate(116 0)"/>
     <use xlink:href="#Lato-Regular-6d" transform="translate(141.600006 0)"/>
     <use xlink:href="#Lato-Regular-6f" transform="translate(223.850021 0)"/>
     <use xlink:href="#Lato-Regular-6e" transform="translate(280.550034 0)"/>
     <use xlink:href="#Lato-Regular-74" transform="translate(335.600037 0)"/>
     <use xlink:href="#Lato-Regular-68" transform="translate(371.450043 0)"/>
     <use xlink:href="#Lato-Regular-73" transform="translate(427.250046 0)"/>
    </g>
   </g>
   <g id="text_12">
    <!-- 6 months -->
    <g style="fill: #888888" transform="translate(137.038373 178.830962) scale(0.08 -0.08)">
     <defs>
      <path id="Lato-Regular-36" d="M 1517 2867 
Q 1453 2790 1398 2716 
Q 1344 2643 1290 2573 
Q 1453 2685 1649 2747 
Q 1846 2810 2077 2810 
Q 2355 2810 2601 2718 
Q 2848 2627 3032 2452 
Q 3216 2278 3325 2024 
Q 3434 1770 3434 1443 
Q 3434 1126 3318 854 
Q 3203 582 2996 380 
Q 2790 179 2500 64 
Q 2211 -51 1862 -51 
Q 1517 -51 1235 59 
Q 954 170 757 373 
Q 560 576 453 865 
Q 346 1155 346 1514 
Q 346 1814 478 2155 
Q 611 2496 902 2883 
L 2067 4448 
Q 2112 4506 2190 4546 
Q 2269 4586 2371 4586 
L 2877 4586 
L 1517 2867 
z
M 893 1414 
Q 893 1194 957 1011 
Q 1021 829 1144 697 
Q 1267 566 1444 494 
Q 1622 422 1850 422 
Q 2080 422 2267 496 
Q 2454 570 2587 701 
Q 2720 832 2792 1011 
Q 2864 1190 2864 1402 
Q 2864 1626 2793 1806 
Q 2723 1987 2593 2113 
Q 2464 2240 2285 2307 
Q 2106 2374 1891 2374 
Q 1661 2374 1475 2296 
Q 1290 2218 1160 2085 
Q 1030 1952 961 1777 
Q 893 1603 893 1414 
z
" transform="scale(0.015625)"/>
     </defs>
     <use xlink:href="#Lato-Regular-36"/>
     <use xlink:href="#Lato-Regular-20" transform="translate(58 0)"/>
     <use xlink:href="#Lato-Regular-6d" transform="translate(83.600006 0)"/>
     <use xlink:href="#Lato-Regular-6f" transform="translate(165.850021 0)"/>
     <use xlink:href="#Lato-Regular-6e" transform="translate(222.550034 0)"/>
     <use xlink:href="#Lato-Regular-74" transform="translate(277.600037 0)"/>
     <use xlink:href="#Lato-Regular-68" transform="translate(313.450043 0)"/>
     <use xlink:href="#Lato-Regular-73" transform="translate(369.250046 0)"/>
    </g>
   </g>
   <g id="text_13">
    <!-- Deal -->
    <g style="fill: #2c3e50" transform="translate(19.928785 178.882212) scale(0.08 -0.08)">
     <defs>
      <path id="Lato-Bold-44" d="M 4624 2314 
Q 4624 1805 4454 1379 
Q 4285 954 3977 646 
Q 3670 339 3238 169 
Q 2806 0 2278 0 
L 515 0 
L 515 4627 
L 2278 4627 
Q 2806 4627 3238 4456 
Q 3670 4285 3977 3979 
Q 4285 3674 4454 3248 
Q 4624 2822 4624 2314 
z
M 3741 2314 
Q 3741 2694 3640 2996 
Q 3539 3299 3348 3508 
Q 3158 3718 2888 3830 
Q 2618 3942 2278 3942 
L 1379 3942 
L 1379 685 
L 2278 685 
Q 2618 685 2888 797 
Q 3158 909 3348 1118 
Q 3539 1328 3640 1630 
Q 3741 1933 3741 2314 
z
" transform="scale(0.015625)"/>
      <path id="Lato-Bold-65" d="M 1789 3334 
Q 2099 3334 2361 3235 
Q 2624 3136 2813 2945 
Q 3002 2755 3109 2478 
Q 3216 2202 3216 1846 
Q 3216 1667 3177 1604 
Q 3139 1542 3030 1542 
L 998 1542 
Q 1018 1290 1088 1106 
Q 1158 922 1273 802 
Q 1389 682 1547 622 
Q 1706 563 1898 563 
Q 2090 563 2229 608 
Q 2368 653 2472 707 
Q 2576 762 2654 806 
Q 2733 851 2806 851 
Q 2906 851 2954 778 
L 3181 490 
Q 3050 336 2886 232 
Q 2723 128 2545 65 
Q 2368 3 2184 -22 
Q 2000 -48 1827 -48 
Q 1485 -48 1190 65 
Q 896 179 678 401 
Q 461 624 336 952 
Q 211 1280 211 1712 
Q 211 2048 320 2344 
Q 429 2640 632 2859 
Q 835 3078 1128 3206 
Q 1421 3334 1789 3334 
z
M 1805 2768 
Q 1459 2768 1264 2573 
Q 1069 2378 1014 2019 
L 2506 2019 
Q 2506 2173 2462 2309 
Q 2419 2445 2332 2547 
Q 2246 2650 2113 2709 
Q 1981 2768 1805 2768 
z
" transform="scale(0.015625)"/>
      <path id="Lato-Bold-61" d="M 2538 0 
Q 2426 0 2365 33 
Q 2304 67 2269 170 
L 2198 403 
Q 2074 291 1955 206 
Q 1837 122 1709 64 
Q 1581 6 1435 -22 
Q 1290 -51 1114 -51 
Q 906 -51 730 5 
Q 554 61 426 173 
Q 298 285 227 451 
Q 157 618 157 838 
Q 157 1024 254 1205 
Q 352 1386 579 1531 
Q 806 1677 1184 1773 
Q 1562 1869 2125 1882 
L 2125 2074 
Q 2125 2403 1984 2561 
Q 1843 2720 1578 2720 
Q 1386 2720 1259 2675 
Q 1133 2630 1037 2574 
Q 941 2518 862 2473 
Q 784 2429 688 2429 
Q 605 2429 547 2472 
Q 490 2515 454 2573 
L 314 2826 
Q 880 3344 1677 3344 
Q 1965 3344 2192 3249 
Q 2419 3155 2576 2987 
Q 2733 2819 2814 2585 
Q 2896 2352 2896 2074 
L 2896 0 
L 2538 0 
z
M 1357 493 
Q 1600 493 1777 581 
Q 1955 669 2125 848 
L 2125 1402 
Q 1779 1386 1547 1342 
Q 1315 1299 1174 1232 
Q 1034 1165 973 1075 
Q 912 986 912 880 
Q 912 672 1035 582 
Q 1158 493 1357 493 
z
" transform="scale(0.015625)"/>
      <path id="Lato-Bold-6c" d="M 1190 4755 
L 1190 0 
L 400 0 
L 400 4755 
L 1190 4755 
z
" transform="scale(0.015625)"/>
     </defs>
     <use xlink:href="#Lato-Bold-44"/>
     <use xlink:href="#Lato-Bold-65" transform="translate(75.425018 0)"/>
     <use xlink:href="#Lato-Bold-61" transform="translate(128.825027 0)"/>
     <use xlink:href="#Lato-Bold-6c" transform="translate(179.575027 0)"/>
    </g>
    <!-- Day -->
    <g style="fill: #2c3e50" transform="translate(21.033785 187.354712) scale(0.08 -0.08)">
     <defs>
      <path id="Lato-Bold-79" d="M 1584 -902 
Q 1549 -986 1493 -1029 
Q 1437 -1072 1322 -1072 
L 733 -1072 
L 1347 243 
L 19 3283 
L 714 3283 
Q 806 3283 859 3238 
Q 912 3194 938 3136 
L 1635 1434 
Q 1699 1258 1741 1085 
Q 1766 1174 1796 1262 
Q 1827 1350 1862 1437 
L 2522 3136 
Q 2547 3200 2606 3241 
Q 2666 3283 2739 3283 
L 3373 3283 
L 1584 -902 
z
" transform="scale(0.015625)"/>
     </defs>
     <use xlink:href="#Lato-Bold-44"/>
     <use xlink:href="#Lato-Bold-61" transform="translate(74.800018 0)"/>
     <use xlink:href="#Lato-Bold-79" transform="translate(124.050018 0)"/>
    </g>
   </g>
   <g id="text_14">
    <!-- The M&amp;A Preparation Timeline -->
    <g style="fill: #2c3e50" transform="translate(28.10566 25.615385) scale(0.13 -0.13)">
     <defs>
      <path id="DejaVuSerif-Bold-54" d="M 1159 0 
L 1159 378 
L 1778 378 
L 1778 4238 
L 500 4238 
L 500 3500 
L 72 3500 
L 72 4666 
L 4697 4666 
L 4697 3500 
L 4275 3500 
L 4275 4238 
L 2988 4238 
L 2988 378 
L 3609 378 
L 3609 0 
L 1159 0 
z
" transform="scale(0.015625)"/>
      <path id="DejaVuSerif-Bold-68" d="M 219 0 
L 219 378 
L 691 378 
L 691 4488 
L 197 4488 
L 197 4863 
L 1797 4863 
L 1797 2853 
Q 1997 3150 2253 3281 
Q 2509 3413 2900 3413 
Q 3459 3413 3745 3083 
Q 4031 2753 4031 2113 
L 4031 378 
L 4506 378 
L 4506 0 
L 2522 0 
L 2522 378 
L 2925 378 
L 2925 2144 
Q 2925 2566 2817 2730 
Q 2709 2894 2444 2894 
Q 2109 2894 1953 2648 
Q 1797 2403 1797 1869 
L 1797 378 
L 2203 378 
L 2203 0 
L 219 0 
z
" transform="scale(0.015625)"/>
      <path id="DejaVuSerif-Bold-20" transform="scale(0.015625)"/>
      <path id="DejaVuSerif-Bold-4d" d="M 269 0 
L 269 378 
L 863 378 
L 863 4288 
L 269 4288 
L 269 4666 
L 2194 4666 
L 3525 1672 
L 4863 4666 
L 6784 4666 
L 6784 4288 
L 6188 4288 
L 6188 378 
L 6784 378 
L 6784 0 
L 4384 0 
L 4384 378 
L 4978 378 
L 4978 3938 
L 3531 684 
L 2741 684 
L 1300 3938 
L 1300 378 
L 1894 378 
L 1894 0 
L 269 0 
z
" transform="scale(0.015625)"/>
      <path id="DejaVuSerif-Bold-26" d="M 5663 0 
L 4166 0 
L 3769 409 
Q 3456 159 3078 34 
Q 2700 -91 2253 -91 
Q 1316 -91 786 309 
Q 256 709 256 1409 
Q 256 1919 526 2280 
Q 797 2641 1375 2900 
Q 1216 3109 1136 3300 
Q 1056 3491 1056 3669 
Q 1056 4181 1486 4465 
Q 1916 4750 2694 4750 
Q 2925 4750 3233 4712 
Q 3541 4675 3928 4603 
L 3928 3628 
L 3525 3628 
Q 3469 4016 3287 4194 
Q 3106 4372 2772 4372 
Q 2456 4372 2275 4222 
Q 2094 4072 2094 3816 
Q 2094 3528 2653 2959 
Q 2716 2897 2747 2869 
L 4184 1363 
Q 4372 1575 4478 1853 
Q 4584 2131 4613 2484 
L 4044 2484 
L 4044 2859 
L 5606 2859 
L 5606 2484 
L 5056 2484 
Q 5003 2028 4861 1675 
Q 4719 1322 4488 1050 
L 5131 378 
L 5663 378 
L 5663 0 
z
M 3475 716 
L 1709 2553 
Q 1538 2344 1450 2108 
Q 1363 1872 1363 1613 
Q 1363 1084 1695 743 
Q 2028 403 2541 403 
Q 2784 403 3014 479 
Q 3244 556 3475 716 
z
" transform="scale(0.015625)"/>
      <path id="DejaVuSerif-Bold-50" d="M 300 0 
L 300 378 
L 897 378 
L 897 4288 
L 300 4288 
L 300 4666 
L 2956 4666 
Q 3734 4666 4193 4295 
Q 4653 3925 4653 3303 
Q 4653 2678 4192 2304 
Q 3731 1931 2956 1931 
L 2100 1931 
L 2100 378 
L 2853 378 
L 2853 0 
L 300 0 
z
M 2100 2309 
L 2450 2309 
Q 2856 2309 3098 2579 
Q 3341 2850 3341 3303 
Q 3341 3753 3100 4020 
Q 2859 4288 2450 4288 
L 2100 4288 
L 2100 2309 
z
" transform="scale(0.015625)"/>
      <path id="DejaVuSerif-Bold-70" d="M 1728 1825 
L 1728 1497 
Q 1728 916 1876 656 
Q 2025 397 2356 397 
Q 2697 397 2836 672 
Q 2975 947 2975 1663 
Q 2975 2378 2836 2651 
Q 2697 2925 2356 2925 
Q 2025 2925 1876 2665 
Q 1728 2406 1728 1825 
z
M 622 2944 
L 147 2944 
L 147 3322 
L 1728 3322 
L 1728 2900 
Q 1869 3159 2106 3286 
Q 2344 3413 2694 3413 
Q 3403 3413 3811 2945 
Q 4219 2478 4219 1663 
Q 4219 847 3811 378 
Q 3403 -91 2694 -91 
Q 2344 -91 2106 36 
Q 1869 163 1728 422 
L 1728 -953 
L 2241 -953 
L 2241 -1331 
L 147 -1331 
L 147 -953 
L 622 -953 
L 622 2944 
z
" transform="scale(0.015625)"/>
      <path id="DejaVuSerif-Bold-6d" d="M 3884 2778 
Q 4116 3109 4384 3261 
Q 4653 3413 5013 3413 
Q 5584 3413 5867 3089 
Q 6150 2766 6150 2113 
L 6150 378 
L 6625 378 
L 6625 0 
L 4647 0 
L 4647 378 
L 5044 378 
L 5044 1947 
Q 5044 2569 4948 2731 
Q 4853 2894 4594 2894 
Q 4300 2894 4137 2667 
Q 3975 2441 3975 2022 
L 3975 378 
L 4372 378 
L 4372 0 
L 2472 0 
L 2472 378 
L 2869 378 
L 2869 1947 
Q 2869 2569 2772 2731 
Q 2675 2894 2419 2894 
Q 2122 2894 1959 2667 
Q 1797 2441 1797 2022 
L 1797 378 
L 2194 378 
L 2194 0 
L 219 0 
L 219 378 
L 691 378 
L 691 2944 
L 219 2944 
L 219 3322 
L 1797 3322 
L 1797 2853 
Q 1991 3144 2241 3278 
Q 2491 3413 2834 3413 
Q 3241 3413 3494 3258 
Q 3747 3103 3884 2778 
z
" transform="scale(0.015625)"/>
     </defs>
     <use xlink:href="#DejaVuSerif-Bold-54"/>
     <use xlink:href="#DejaVuSerif-Bold-68" transform="translate(74.414062 0)"/>
     <use xlink:href="#DejaVuSerif-Bold-65" transform="translate(147.119141 0)"/>
     <use xlink:href="#DejaVuSerif-Bold-20" transform="translate(210.742188 0)"/>
     <use xlink:href="#DejaVuSerif-Bold-4d" transform="translate(245.556641 0)"/>
     <use xlink:href="#DejaVuSerif-Bold-26" transform="translate(356.25 0)"/>
     <use xlink:href="#DejaVuSerif-Bold-41" transform="translate(446.533203 0)"/>
     <use xlink:href="#DejaVuSerif-Bold-20" transform="translate(524.121094 0)"/>
     <use xlink:href="#DejaVuSerif-Bold-50" transform="translate(558.935547 0)"/>
     <use xlink:href="#DejaVuSerif-Bold-72" transform="translate(634.130859 0)"/>
     <use xlink:href="#DejaVuSerif-Bold-65" transform="translate(686.816406 0)"/>
     <use xlink:href="#DejaVuSerif-Bold-70" transform="translate(750.439453 0)"/>
     <use xlink:href="#DejaVuSerif-Bold-61" transform="translate(820.361328 0)"/>
     <use xlink:href="#DejaVuSerif-Bold-72" transform="translate(885.15625 0)"/>
     <use xlink:href="#DejaVuSerif-Bold-61" transform="translate(937.841797 0)"/>
     <use xlink:href="#DejaVuSerif-Bold-74" transform="translate(1002.636719 0)"/>
     <use xlink:href="#DejaVuSerif-Bold-69" transform="translate(1048.828125 0)"/>
     <use xlink:href="#DejaVuSerif-Bold-6f" transform="translate(1086.816406 0)"/>
     <use xlink:href="#DejaVuSerif-Bold-6e" transform="translate(1153.515625 0)"/>
     <use xlink:href="#DejaVuSerif-Bold-20" transform="translate(1226.220703 0)"/>
     <use xlink:href="#DejaVuSerif-Bold-54" transform="translate(1261.035156 0)"/>
     <use xlink:href="#DejaVuSerif-Bold-69" transform="translate(1335.449219 0)"/>
     <use xlink:href="#DejaVuSerif-Bold-6d" transform="translate(1373.4375 0)"/>
     <use xlink:href="#DejaVuSerif-Bold-65" transform="translate(1479.248047 0)"/>
     <use xlink:href="#DejaVuSerif-Bold-6c" transform="translate(1542.871094 0)"/>
     <use xlink:href="#DejaVuSerif-Bold-69" transform="translate(1580.859375 0)"/>
     <use xlink:href="#DejaVuSerif-Bold-6e" transform="translate(1618.847656 0)"/>
     <use xlink:href="#DejaVuSerif-Bold-65" transform="translate(1691.552734 0)"/>
    </g>
   </g>
   <g id="text_15">
    <!-- Start 1824 months before you want to transact -->
    <g style="fill: #888888" transform="translate(28.10566 40.347692) scale(0.09 -0.09)">
     <defs>
      <path id="Lato-Regular-53" d="M 2931 3869 
Q 2902 3821 2868 3797 
Q 2835 3773 2787 3773 
Q 2733 3773 2659 3827 
Q 2586 3882 2475 3947 
Q 2365 4013 2209 4067 
Q 2054 4122 1834 4122 
Q 1626 4122 1467 4066 
Q 1309 4010 1201 3914 
Q 1094 3818 1040 3688 
Q 986 3558 986 3408 
Q 986 3216 1080 3089 
Q 1174 2963 1329 2873 
Q 1485 2784 1681 2718 
Q 1878 2653 2084 2582 
Q 2291 2512 2488 2424 
Q 2685 2336 2840 2201 
Q 2995 2067 3089 1872 
Q 3184 1677 3184 1392 
Q 3184 1091 3081 827 
Q 2979 563 2782 368 
Q 2586 173 2299 61 
Q 2013 -51 1648 -51 
Q 1200 -51 835 110 
Q 470 272 211 547 
L 390 842 
Q 416 877 453 901 
Q 490 925 534 925 
Q 576 925 629 891 
Q 682 858 749 806 
Q 816 755 902 694 
Q 989 634 1099 582 
Q 1210 531 1350 497 
Q 1491 464 1667 464 
Q 1888 464 2061 525 
Q 2234 586 2354 696 
Q 2474 806 2538 960 
Q 2602 1114 2602 1302 
Q 2602 1510 2507 1643 
Q 2413 1776 2259 1865 
Q 2106 1955 1907 2017 
Q 1709 2080 1504 2145 
Q 1299 2211 1100 2297 
Q 902 2384 748 2521 
Q 595 2659 500 2865 
Q 406 3072 406 3376 
Q 406 3619 500 3846 
Q 595 4074 776 4250 
Q 957 4426 1221 4531 
Q 1485 4637 1827 4637 
Q 2211 4637 2526 4515 
Q 2842 4394 3082 4163 
L 2931 3869 
z
" transform="scale(0.015625)"/>
      <path id="Lato-Regular-2013" d="M 576 2096 
L 3136 2096 
L 3136 1680 
L 576 1680 
L 576 2096 
z
" transform="scale(0.015625)"/>
      <path id="Lato-Regular-77" d="M 106 3242 
L 554 3242 
Q 621 3242 667 3206 
Q 714 3171 730 3123 
L 1350 1037 
Q 1376 925 1398 817 
Q 1421 710 1437 605 
Q 1462 710 1494 817 
Q 1526 925 1562 1037 
L 2246 3136 
Q 2262 3184 2302 3216 
Q 2342 3248 2400 3248 
L 2650 3248 
Q 2714 3248 2755 3216 
Q 2797 3184 2813 3136 
L 3482 1037 
Q 3514 925 3542 816 
Q 3571 707 3597 602 
Q 3616 707 3640 814 
Q 3664 922 3693 1037 
L 4326 3123 
Q 4342 3174 4387 3208 
Q 4432 3242 4493 3242 
L 4922 3242 
L 3872 0 
L 3421 0 
Q 3338 0 3306 109 
L 2589 2307 
Q 2563 2381 2547 2456 
Q 2531 2531 2515 2605 
Q 2499 2531 2481 2454 
Q 2464 2378 2442 2304 
L 1712 109 
Q 1683 0 1584 0 
L 1155 0 
L 106 3242 
z
" transform="scale(0.015625)"/>
     </defs>
     <use xlink:href="#Lato-Regular-53"/>
     <use xlink:href="#Lato-Regular-74" transform="translate(52 0)"/>
     <use xlink:href="#Lato-Regular-61" transform="translate(87.850006 0)"/>
     <use xlink:href="#Lato-Regular-72" transform="translate(137.550018 0)"/>
     <use xlink:href="#Lato-Regular-74" transform="translate(173.950027 0)"/>
     <use xlink:href="#Lato-Regular-20" transform="translate(209.800034 0)"/>
     <use xlink:href="#Lato-Regular-31" transform="translate(235.40004 0)"/>
     <use xlink:href="#Lato-Regular-38" transform="translate(293.40004 0)"/>
     <use xlink:href="#Lato-Regular-2013" transform="translate(351.40004 0)"/>
     <use xlink:href="#Lato-Regular-32" transform="translate(409.40004 0)"/>
     <use xlink:href="#Lato-Regular-34" transform="translate(467.40004 0)"/>
     <use xlink:href="#Lato-Regular-20" transform="translate(525.40004 0)"/>
     <use xlink:href="#Lato-Regular-6d" transform="translate(551.000046 0)"/>
     <use xlink:href="#Lato-Regular-6f" transform="translate(633.250061 0)"/>
     <use xlink:href="#Lato-Regular-6e" transform="translate(689.950073 0)"/>
     <use xlink:href="#Lato-Regular-74" transform="translate(745.000076 0)"/>
     <use xlink:href="#Lato-Regular-68" transform="translate(780.850082 0)"/>
     <use xlink:href="#Lato-Regular-73" transform="translate(836.650085 0)"/>
     <use xlink:href="#Lato-Regular-20" transform="translate(879.950089 0)"/>
     <use xlink:href="#Lato-Regular-62" transform="translate(905.550095 0)"/>
     <use xlink:href="#Lato-Regular-65" transform="translate(961.550095 0)"/>
     <use xlink:href="#Lato-Regular-66" transform="translate(1013.850098 0)"/>
     <use xlink:href="#Lato-Regular-6f" transform="translate(1047.275101 0)"/>
     <use xlink:href="#Lato-Regular-72" transform="translate(1103.975113 0)"/>
     <use xlink:href="#Lato-Regular-65" transform="translate(1138.375122 0)"/>
     <use xlink:href="#Lato-Regular-20" transform="translate(1191.175125 0)"/>
     <use xlink:href="#Lato-Regular-79" transform="translate(1214.275131 0)"/>
     <use xlink:href="#Lato-Regular-6f" transform="translate(1264.450134 0)"/>
     <use xlink:href="#Lato-Regular-75" transform="translate(1321.150146 0)"/>
     <use xlink:href="#Lato-Regular-20" transform="translate(1376.900146 0)"/>
     <use xlink:href="#Lato-Regular-77" transform="translate(1400.500153 0)"/>
     <use xlink:href="#Lato-Regular-61" transform="translate(1478.425171 0)"/>
     <use xlink:href="#Lato-Regular-6e" transform="translate(1528.125183 0)"/>
     <use xlink:href="#Lato-Regular-74" transform="translate(1583.175186 0)"/>
     <use xlink:href="#Lato-Regular-20" transform="translate(1619.025192 0)"/>
     <use xlink:href="#Lato-Regular-74" transform="translate(1644.625198 0)"/>
     <use xlink:href="#Lato-Regular-6f" transform="translate(1680.225204 0)"/>
     <use xlink:href="#Lato-Regular-20" transform="translate(1736.925217 0)"/>
     <use xlink:href="#Lato-Regular-74" transform="translate(1762.525223 0)"/>
     <use xlink:href="#Lato-Regular-72" transform="translate(1798.375229 0)"/>
     <use xlink:href="#Lato-Regular-61" transform="translate(1834.025238 0)"/>
     <use xlink:href="#Lato-Regular-6e" transform="translate(1883.72525 0)"/>
     <use xlink:href="#Lato-Regular-73" transform="translate(1939.525253 0)"/>
     <use xlink:href="#Lato-Regular-61" transform="translate(1982.825256 0)"/>
     <use xlink:href="#Lato-Regular-63" transform="translate(2032.525269 0)"/>
     <use xlink:href="#Lato-Regular-74" transform="translate(2080.275269 0)"/>
    </g>
   </g>
   <g id="line2d_2">
    <defs>
     <path id="mb8f89ee404" d="M 0 1.5 
C 0.397805 1.5 0.77937 1.341951 1.06066 1.06066 
C 1.341951 0.77937 1.5 0.397805 1.5 0 
C 1.5 -0.397805 1.341951 -0.77937 1.06066 -1.06066 
C 0.77937 -1.341951 0.397805 -1.5 0 -1.5 
C -0.397805 -1.5 -0.77937 -1.341951 -1.06066 -1.06066 
C -1.341951 -0.77937 -1.5 -0.397805 -1.5 0 
C -1.5 0.397805 -1.341951 0.77937 -1.06066 1.06066 
C -0.77937 1.341951 -0.397805 1.5 0 1.5 
z
" style="stroke: #2c3e50; stroke-opacity: 0.25098"/>
    </defs>
    <g clip-path="url(#pe30ca822a8)">
     <use xlink:href="#mb8f89ee404" x="529.841509" y="150.84" style="fill: #2c3e50; fill-opacity: 0.25098; stroke: #2c3e50; stroke-opacity: 0.25098"/>
    </g>
   </g>
   <g id="line2d_3">
    <g clip-path="url(#pe30ca822a8)">
     <use xlink:href="#mb8f89ee404" x="404.407547" y="150.84" style="fill: #2c3e50; fill-opacity: 0.25098; stroke: #2c3e50; stroke-opacity: 0.25098"/>
    </g>
   </g>
   <g id="line2d_4">
    <g clip-path="url(#pe30ca822a8)">
     <use xlink:href="#mb8f89ee404" x="278.973585" y="150.84" style="fill: #2c3e50; fill-opacity: 0.25098; stroke: #2c3e50; stroke-opacity: 0.25098"/>
    </g>
   </g>
   <g id="line2d_5">
    <g clip-path="url(#pe30ca822a8)">
     <use xlink:href="#mb8f89ee404" x="153.539623" y="150.84" style="fill: #2c3e50; fill-opacity: 0.25098; stroke: #2c3e50; stroke-opacity: 0.25098"/>
    </g>
   </g>
   <g id="line2d_6">
    <defs>
     <path id="m982f758092" d="M 0 2.5 
C 0.663008 2.5 1.29895 2.236584 1.767767 1.767767 
C 2.236584 1.29895 2.5 0.663008 2.5 0 
C 2.5 -0.663008 2.236584 -1.29895 1.767767 -1.767767 
C 1.29895 -2.236584 0.663008 -2.5 0 -2.5 
C -0.663008 -2.5 -1.29895 -2.236584 -1.767767 -1.767767 
C -2.236584 -1.29895 -2.5 -0.663008 -2.5 0 
C -2.5 0.663008 -2.236584 1.29895 -1.767767 1.767767 
C -1.29895 2.236584 -0.663008 2.5 0 2.5 
z
" style="stroke: #d4af37"/>
    </defs>
    <g clip-path="url(#pe30ca822a8)">
     <use xlink:href="#m982f758092" x="28.10566" y="150.84" style="fill: #d4af37; stroke: #d4af37"/>
    </g>
   </g>
  </g>
  <g id="text_16">
   <!-- Newport Pembury &amp; Co -->
   <g style="fill: #888888; opacity: 0.376471" transform="translate(487.120938 226.08) scale(0.07 -0.07)">
    <defs>
     <path id="Lato-Regular-4e" d="M 906 4586 
Q 947 4586 976 4581 
Q 1005 4576 1027 4565 
Q 1050 4554 1072 4533 
Q 1094 4512 1120 4480 
L 3773 1027 
Q 3766 1110 3761 1188 
Q 3757 1267 3757 1338 
L 3757 4586 
L 4301 4586 
L 4301 0 
L 3990 0 
Q 3917 0 3867 25 
Q 3818 51 3770 112 
L 1117 3565 
Q 1123 3485 1126 3408 
Q 1130 3331 1130 3267 
L 1130 0 
L 586 0 
L 586 4586 
L 906 4586 
L 906 4586 
z
" transform="scale(0.015625)"/>
     <path id="Lato-Regular-50" d="M 1203 1715 
L 1203 0 
L 586 0 
L 586 4586 
L 1939 4586 
Q 2374 4586 2696 4485 
Q 3018 4384 3229 4198 
Q 3440 4013 3544 3750 
Q 3648 3488 3648 3165 
Q 3648 2845 3536 2579 
Q 3424 2314 3208 2122 
Q 2992 1930 2673 1822 
Q 2355 1715 1939 1715 
L 1203 1715 
z
M 1203 2208 
L 1939 2208 
Q 2205 2208 2408 2278 
Q 2611 2349 2750 2475 
Q 2890 2602 2960 2778 
Q 3030 2954 3030 3165 
Q 3030 3603 2760 3849 
Q 2490 4096 1939 4096 
L 1203 4096 
L 1203 2208 
z
" transform="scale(0.015625)"/>
    </defs>
    <use xlink:href="#Lato-Regular-4e"/>
    <use xlink:href="#Lato-Regular-65" transform="translate(74.850006 0)"/>
    <use xlink:href="#Lato-Regular-77" transform="translate(127.150009 0)"/>
    <use xlink:href="#Lato-Regular-70" transform="translate(205.700027 0)"/>
    <use xlink:href="#Lato-Regular-6f" transform="translate(261.750031 0)"/>
    <use xlink:href="#Lato-Regular-72" transform="translate(318.450043 0)"/>
    <use xlink:href="#Lato-Regular-74" transform="translate(354.850052 0)"/>
    <use xlink:href="#Lato-Regular-20" transform="translate(390.700058 0)"/>
    <use xlink:href="#Lato-Regular-50" transform="translate(416.300064 0)"/>
    <use xlink:href="#Lato-Regular-65" transform="translate(473.725067 0)"/>
    <use xlink:href="#Lato-Regular-6d" transform="translate(526.52507 0)"/>
    <use xlink:href="#Lato-Regular-62" transform="translate(608.775085 0)"/>
    <use xlink:href="#Lato-Regular-75" transform="translate(664.775085 0)"/>
    <use xlink:href="#Lato-Regular-72" transform="translate(720.525085 0)"/>
    <use xlink:href="#Lato-Regular-79" transform="translate(756.925095 0)"/>
    <use xlink:href="#Lato-Regular-20" transform="translate(805.975098 0)"/>
    <use xlink:href="#Lato-Regular-26" transform="translate(831.575104 0)"/>
    <use xlink:href="#Lato-Regular-20" transform="translate(902.775116 0)"/>
    <use xlink:href="#Lato-Regular-43" transform="translate(928.375122 0)"/>
    <use xlink:href="#Lato-Regular-6f" transform="translate(994.175125 0)"/>
   </g>
  </g>
 </g>
 <defs>
  <clipPath id="pe30ca822a8">
   <rect x="7.2" y="7.2" width="554" height="191.52"/>
  </clipPath>
 </defs>
</svg>
