<svg viewBox="0 0 600 340" xmlns="http://www.w3.org/2000/svg">
  <defs>
    <linearGradient id="bgGradient7" x1="0%" y1="0%" x2="100%" y2="100%">
      <stop offset="0%" style="stop-color:#1B2838;stop-opacity:1" />
      <stop offset="100%" style="stop-color:#0F1923;stop-opacity:1" />
    </linearGradient>
  </defs>

  <!-- Background -->
  <rect width="600" height="340" fill="url(#bgGradient7)"/>

  <!-- Blueprint grid pattern -->
  <g stroke="rgba(197,165,90,0.08)" stroke-width="0.5">
    <line x1="50" y1="50" x2="50" y2="300"/>
    <line x1="100" y1="50" x2="100" y2="300"/>
    <line x1="150" y1="50" x2="150" y2="300"/>
    <line x1="200" y1="50" x2="200" y2="300"/>
    <line x1="250" y1="50" x2="250" y2="300"/>
    <line x1="300" y1="50" x2="300" y2="300"/>
    <line x1="350" y1="50" x2="350" y2="300"/>
    <line x1="400" y1="50" x2="400" y2="300"/>
    <line x1="450" y1="50" x2="450" y2="300"/>
    <line x1="500" y1="50" x2="500" y2="300"/>
    <line x1="550" y1="50" x2="550" y2="300"/>

    <line x1="40" y1="80" x2="560" y2="80"/>
    <line x1="40" y1="130" x2="560" y2="130"/>
    <line x1="40" y1="180" x2="560" y2="180"/>
    <line x1="40" y1="230" x2="560" y2="230"/>
    <line x1="40" y1="280" x2="560" y2="280"/>
  </g>

  <!-- Dashboard header section -->
  <g>
    <rect x="50" y="55" width="510" height="20" fill="none" stroke="rgba(197,165,90,0.25)" stroke-width="1.5"/>
    <rect x="55" y="60" width="50" height="10" fill="rgba(197,165,90,0.1)"/>
    <rect x="420" y="60" width="30" height="10" fill="rgba(197,165,90,0.1)"/>
    <rect x="460" y="60" width="30" height="10" fill="rgba(197,165,90,0.1)"/>
  </g>

  <!-- Left sidebar navigation -->
  <g>
    <rect x="50" y="80" width="90" height="210" fill="none" stroke="rgba(197,165,90,0.2)" stroke-width="1"/>
    <!-- Nav items -->
    <rect x="58" y="88" width="74" height="8" rx="1" fill="rgba(197,165,90,0.15)"/>
    <rect x="58" y="105" width="74" height="8" rx="1" fill="rgba(245,240,232,0.08)"/>
    <rect x="58" y="122" width="74" height="8" rx="1" fill="rgba(245,240,232,0.08)"/>
    <rect x="58" y="139" width="74" height="8" rx="1" fill="rgba(245,240,232,0.08)"/>
    <!-- Divider -->
    <line x1="58" y1="155" x2="132" y2="155" stroke="rgba(197,165,90,0.1)" stroke-width="0.5"/>
    <rect x="58" y="162" width="74" height="8" rx="1" fill="rgba(245,240,232,0.08)"/>
    <rect x="58" y="179" width="74" height="8" rx="1" fill="rgba(245,240,232,0.08)"/>
  </g>

  <!-- Calendar section (top right) -->
  <g>
    <rect x="155" y="80" width="195" height="95" fill="none" stroke="rgba(197,165,90,0.3)" stroke-width="1.5"/>
    <!-- Calendar header -->
    <rect x="155" y="80" width="195" height="15" fill="rgba(197,165,90,0.08)"/>
    <!-- Calendar grid -->
    <g stroke="rgba(197,165,90,0.12)" stroke-width="0.5">
      <line x1="200" y1="95" x2="200" y2="170"/>
      <line x1="245" y1="95" x2="245" y2="170"/>
      <line x1="290" y1="95" x2="290" y2="170"/>
      <line x1="335" y1="95" x2="335" y2="170"/>
      <line x1="155" y1="115" x2="350" y2="115"/>
      <line x1="155" y1="135" x2="350" y2="135"/>
      <line x1="155" y1="155" x2="350" y2="155"/>
    </g>
    <!-- Calendar cells with some highlighted -->
    <circle cx="175" cy="125" r="3" fill="#C5A55A" opacity="0.6"/>
    <circle cx="220" cy="145" r="3" fill="#C5A55A" opacity="0.6"/>
    <circle cx="310" cy="105" r="3" fill="#C5A55A" opacity="0.4"/>
  </g>

  <!-- Form section (middle right) -->
  <g>
    <rect x="365" y="80" width="185" height="95" fill="none" stroke="rgba(197,165,90,0.3)" stroke-width="1.5"/>
    <!-- Form label -->
    <rect x="373" y="88" width="40" height="4" rx="1" fill="rgba(197,165,90,0.2)"/>
    <!-- Form inputs -->
    <rect x="373" y="100" width="165" height="6" rx="1" fill="none" stroke="rgba(245,240,232,0.2)" stroke-width="0.5"/>
    <rect x="373" y="115" width="165" height="6" rx="1" fill="none" stroke="rgba(245,240,232,0.2)" stroke-width="0.5"/>
    <!-- Dropdown -->
    <rect x="373" y="130" width="165" height="6" rx="1" fill="rgba(197,165,90,0.1)" stroke="rgba(197,165,90,0.3)" stroke-width="0.5"/>
    <!-- Submit button -->
    <rect x="430" y="150" width="50" height="8" rx="2" fill="#C5A55A" opacity="0.4"/>
  </g>

  <!-- Data table section (bottom left) -->
  <g>
    <rect x="50" y="190" width="240" height="100" fill="none" stroke="rgba(197,165,90,0.3)" stroke-width="1.5"/>
    <!-- Table header -->
    <rect x="50" y="190" width="240" height="12" fill="rgba(197,165,90,0.08)"/>
    <!-- Table header cells -->
    <line x1="130" y1="190" x2="130" y2="290" stroke="rgba(197,165,90,0.12)" stroke-width="0.5"/>
    <line x1="210" y1="190" x2="210" y2="290" stroke="rgba(197,165,90,0.12)" stroke-width="0.5"/>
    <!-- Table rows -->
    <line x1="50" y1="210" x2="290" y2="210" stroke="rgba(197,165,90,0.08)" stroke-width="0.5"/>
    <line x1="50" y1="230" x2="290" y2="230" stroke="rgba(197,165,90,0.08)" stroke-width="0.5"/>
    <line x1="50" y1="250" x2="290" y2="250" stroke="rgba(197,165,90,0.08)" stroke-width="0.5"/>
    <line x1="50" y1="270" x2="290" y2="270" stroke="rgba(197,165,90,0.08)" stroke-width="0.5"/>
    <!-- Data cells with highlight -->
    <circle cx="80" cy="220" r="2" fill="#C5A55A" opacity="0.5"/>
    <circle cx="145" cy="240" r="2" fill="#C5A55A" opacity="0.5"/>
    <circle cx="215" cy="260" r="2" fill="#C5A55A" opacity="0.5"/>
  </g>

  <!-- Status panel (bottom right) -->
  <g>
    <rect x="305" y="190" width="245" height="100" fill="none" stroke="rgba(197,165,90,0.3)" stroke-width="1.5"/>
    <!-- Status indicators -->
    <g>
      <circle cx="320" cy="210" r="3" fill="#C5A55A" opacity="0.7"/>
      <rect x="330" y="206" width="50" height="4" rx="1" fill="rgba(245,240,232,0.15)"/>
    </g>
    <g>
      <circle cx="320" cy="235" r="3" fill="rgba(197,165,90,0.4)"/>
      <rect x="330" y="231" width="50" height="4" rx="1" fill="rgba(245,240,232,0.1)"/>
    </g>
    <g>
      <circle cx="320" cy="260" r="3" fill="rgba(197,165,90,0.3)"/>
      <rect x="330" y="256" width="50" height="4" rx="1" fill="rgba(245,240,232,0.08)"/>
    </g>
    <!-- Chart area -->
    <g fill="none" stroke="rgba(197,165,90,0.2)" stroke-width="1">
      <polyline points="410,260 425,245 440,250 455,235 470,240 485,225 500,230"/>
    </g>
  </g>

  <!-- UI interaction highlights (gold accents) -->
  <g fill="#C5A55A" opacity="0.5">
    <rect x="85" y="95" width="40" height="2" rx="1"/>
    <circle cx="430" cy="156" r="4"/>
  </g>

  <!-- Blueprint corner markers -->
  <g stroke="rgba(197,165,90,0.15)" stroke-width="1" fill="none">
    <circle cx="45" cy="45" r="4"/>
    <circle cx="560" cy="45" r="4"/>
    <circle cx="45" cy="305" r="4"/>
    <circle cx="560" cy="305" r="4"/>
  </g>
</svg>